<svg aria-hidden="true" style="width:0;height:0;position:absolute;overflow:hidden" xmlns="http://www.w3.org/2000/svg"><defs><symbol id="icon-logo" viewBox="0 0 45 32"><path d="M13.563 15.779c.048.395.397.594.638.71l.038.021c.125.066.216.115.31.205.035.034.063.065.095.101l.085.093c.07.073.155.153.265.211.239.125.471.061.652-.054l.003.004.006.006a.558.558 0 0 1 .073.095l.001.002.013.021c.022.035.051.079.083.118a.776.776 0 0 0 .575.322h.04l.01-.001.013.052c.026.111.047.203.059.306v.001c.014.118.018.234.021.355v.07c.001.097.003.197.009.296a.732.732 0 0 0 .284.596c.073.06.158.102.234.134l.109.045.007.003.105.043c.141.063.188.111.2.169l.001.006.017.076c.035.157.072.33.222.506v.001c.05.056.107.115.158.169l.082.086a1.1 1.1 0 0 1 .174.237l.001.002c.166.309.263.653.363 1.002.035.121.069.243.106.364l.001.005.004.01-.002-.001-.005-.002a.968.968 0 0 0-.393-.088c-.09 0-.16.026-.217.054l-.063.035-.007.004-.017.01-.007-.006a.414.414 0 0 0-.088-.06l-.002-.001a.466.466 0 0 0-.391-.024l.003-.001c-.035.012-.067.028-.093.04l-.035.017-.038.019a.181.181 0 0 1-.05.019h-.002l-.013-.003a.002.002 0 0 1-.002-.002c-.001-.002-.008-.014-.005-.04v-.002c.002-.011.002-.024.002-.038a.294.294 0 0 0-.051-.166l.001.001a.324.324 0 0 0-.137-.112l-.002-.001a.39.39 0 0 0-.308.002l.002-.001c-.045.02-.079.036-.113.054l.009-.004-.044-.025-.007.053a1.34 1.34 0 0 0-.602.7l-.003.009c-.074.181-.09.373-.073.557.005.061.017.118.026.165v.001c.01.051.017.088.021.122.004.056-.004.08-.035.107-.04.035-.082.064-.129.097l-.051.038a1.44 1.44 0 0 0-.207.179l-.001.001-.006.006a1.664 1.664 0 0 0-.279.55l-.002.006-.042.146c-.038.134-.077.274-.141.394a.395.395 0 0 1-.124.152l-.001.001c-.033.021-.079.034-.153.015l-.002-.001a.359.359 0 0 0-.448.346l-.001.025c0 .055.007.108.02.159l-.001-.004-.067.052.102.04c.019.04.041.074.066.105l-.001-.001a.792.792 0 0 0 .271.209c.07.036.148.068.218.097l.063.026c.088.037.156.07.207.108.179.146.379.227.591.23s.417-.073.61-.208c.083-.056.159-.12.227-.178l.028-.024c.06-.052.113-.099.169-.14.124-.092.237-.141.378-.125l.003.001c.27.025.512.223.544.452l.001.003a.326.326 0 0 0 .568.166.299.299 0 0 0 .054-.257v.002c-.114-.694-.89-1.151-1.572-.96-.226.063-.397.207-.534.323l-.004.003c-.148.125-.26.218-.398.259l-.004.001c-.056.018-.09.01-.138-.021a1.338 1.338 0 0 1-.093-.066l.002.002-.013-.01a1.322 1.322 0 0 0-.16-.109l-.006-.003c.107-.095.195-.209.257-.325.084-.152.137-.33.184-.486.014-.05.028-.097.042-.14.063-.195.136-.343.27-.445l.049-.035c.118-.087.27-.198.358-.367.132-.239.073-.47.03-.638l-.013-.052a.637.637 0 0 1 .114-.513l-.001.002a.757.757 0 0 0 .817.152l-.005.002v.001l.008-.003a.36.36 0 0 0 .04-.022l.026.023a.297.297 0 0 0 .054.039l.002.001c.087.049.232.109.381.06a.466.466 0 0 0 .151-.07l-.001.001.013-.008c.029-.019.04-.027.056-.033l.01-.004.009-.005c.01-.006.021-.01.061.004.022.008.047.021.081.038l.012.006c.029.015.065.033.102.049l.006.003c.184.071.447.099.664-.027l.001-.001a.476.476 0 0 0 .238-.372v-.002a.938.938 0 0 0-.052-.368c-.03-.097-.059-.198-.089-.301-.124-.42-.256-.87-.449-1.27a1.937 1.937 0 0 0-.403-.554l-.001-.001-.059-.065-.001-.001-.056-.06a.377.377 0 0 1-.064-.098l-.001-.002a.756.756 0 0 1-.029-.141.748.748 0 0 0-.076-.274l.002.004-.004-.007a.902.902 0 0 0-.412-.368l-.006-.002a1.587 1.587 0 0 0-.182-.076l-.012-.004-.075-.027.018.006a.396.396 0 0 1-.149-.084l-.008-.008a.034.034 0 0 1-.009-.012.071.071 0 0 1-.004-.021l-.001-.024.001-.037v.002l.001-.014c.001-.023.003-.052.003-.082v-.426l-.001-.006a3.685 3.685 0 0 0-.132-.835v-.003a.568.568 0 0 0-.262-.337l-.003-.001a.772.772 0 0 0-.386-.081h.002c-.041 0-.07-.015-.116-.073-.021-.026-.04-.055-.063-.09a1.12 1.12 0 0 0-.128-.171l.001.001c-.179-.205-.505-.387-.838-.223a.321.321 0 0 0-.079.046h.001a1.188 1.188 0 0 0-.282-.204l-.007-.003a2.163 2.163 0 0 0-.292-.118l-.017-.005-.077-.026a3.628 3.628 0 0 1-.247-.087l.03.01c-.185-.072-.319-.155-.398-.291l-.017-.029-.028-.021a.332.332 0 0 0-.212-.075h-.011.001a.215.215 0 0 0-.146.067.197.197 0 0 0-.048.178v-.001zm5.222 6.453z"/><path d="m22.454 21.694.014-.174a3.228 3.228 0 0 0-1.664.31l.019-.008a1.795 1.795 0 0 0-.612.442.896.896 0 0 0-.178.316l-.002.006-.138-.012.116.111a.715.715 0 0 0 .04.36l.003.007a.36.36 0 0 0 .117.154l.001.001a.403.403 0 0 0 .163.069h.002l.011.002.012.001c.167.01.274.147.258.269v.003a.223.223 0 0 1-.104.168l-.001.001a.606.606 0 0 1-.256.084h-.003c-.085.012-.173.016-.271.021l-.049.003a2.41 2.41 0 0 0-.358.038 1.197 1.197 0 0 0-.332.107l.007-.003-.008.004a.878.878 0 0 0-.079.049l-.019.013a.4.4 0 0 1-.058.033l-.003.001a.348.348 0 0 0-.579.064l-.001.002-.005.009-.003.009-.005.011.001-.003h-.166l.104.152a5.458 5.458 0 0 1-.135.299l.014-.032-.067-.068-.003-.003-.014-.121-.07.034-.001-.001a.346.346 0 0 0-.364-.066l.002-.001a.317.317 0 0 0-.214.298l.002.032v-.001.002l-.081.039.093.089c.051.518.139 1.023.24 1.523.031.168.19.211.286.198a.263.263 0 0 0 .23-.261c0-.275-.007-.55-.024-.825.018.003.04.005.061.005l.027-.001h-.001a.318.318 0 0 0 .259-.163l.001-.002.002-.003.065-.125.107-.021-.063-.066c.058-.114.117-.23.172-.345a.626.626 0 0 0 .455-.097c.029-.016.054-.031.075-.045.051-.031.087-.053.132-.069.138-.046.282-.05.458-.055l.044-.001c.186-.006.406-.017.621-.115l.006-.003a.954.954 0 0 0 .514-.976l-.001-.006a.891.891 0 0 0-.544-.66.563.563 0 0 1 .126-.127l.002-.001c.143-.111.34-.197.476-.248a2.759 2.759 0 0 1 1.136-.155h-.009a.315.315 0 0 0 .253-.091.331.331 0 0 0-.225-.556h-.001l-.013.173zm0 0c.202.015.202.315 0 .3a2.967 2.967 0 0 0-1.219.172l.021-.007-1.046.442c.101-.279.414-.495.688-.622a3.022 3.022 0 0 1 1.568-.284l-.011-.001z"/><path d="M22.193 22.038c.042.045.1.076.164.083h.001a.556.556 0 0 0 .035.161l-.001-.004-.099.095.159.021c.07.095.16.17.266.219l.004.002.011.006.011.003c.01.003.046.016.088.033a.32.32 0 0 0-.058.247v-.002a.341.341 0 0 0 .182.246l.002.001.008.06.088-.027.035.005h.002c.232.026.45.12.684.236l.141.072c.188.097.391.2.602.27h.001c.334.108.669.106.978.099l.074-.002c.288-.007.553-.014.817.043.104.022.214.053.307.09l-.016.01c-.09.044-.181.096-.262.142l-.091.051-.007.003a7.202 7.202 0 0 0-1.339 1.046l-.056.053a3.3 3.3 0 0 0-.205.205.968.968 0 0 0-.219.368l-.002.007-.001.003a.553.553 0 0 0 .037.39l-.001-.003a.445.445 0 0 0 .341.249h.001a.945.945 0 0 0 .415-.059l.073-.024c.093-.031.167-.056.243-.066h.001c.088-.013.146.007.167.028.029.03.055.063.078.098l.002.003.003.005c.029.042.07.099.12.15l.007.007.008.006a.578.578 0 0 0 .355.141.87.87 0 0 0 .141-.014l.006-.001a.705.705 0 0 1 .07-.01l.003.007.003.006c.053.09.083.209.098.346.014.136.011.279.003.41a3.441 3.441 0 0 1-.035.301l-.009.068a2.968 2.968 0 0 0-.033.407v.002c.002.286.081.581.376.812.501.392 1.178.271 1.633-.021.23-.143.419-.331.591-.502l.122-.12.004-.004c.129-.134.257-.25.388-.369.089-.081.179-.163.273-.253.125-.106.11-.266.051-.362a.292.292 0 0 0-.35-.127l.002-.001c-.294.095-.519.278-.713.469a9.746 9.746 0 0 0-.225.234l-.053.056c-.09.096-.177.186-.267.266-.159.14-.352.246-.565.304l-.01.002c-.205.047-.376.014-.499-.136l-.001-.001c-.057-.069-.081-.16-.081-.285 0-.093.013-.185.026-.285l.015-.12a2.43 2.43 0 0 0 .015-.847c-.03-.218-.081-.543-.295-.769l-.006-.005a.655.655 0 0 0-.338-.166h-.004l-.009-.001a.624.624 0 0 0-.15.006h.003l-.049.007-.007.001-.037.005h-.005l-.025.002-.015-.001h.001a2.002 2.002 0 0 1-.069-.092l-.001-.001a2.538 2.538 0 0 0-.094-.125l.003.004-.014-.014a.84.84 0 0 0-.364-.191l-.006-.001-.011-.003a1.13 1.13 0 0 0-.355-.015h.005c.134-.133.273-.264.412-.387a7.502 7.502 0 0 1 1.352-.863l.002-.001a.89.89 0 0 0 .298-.237.394.394 0 0 0 .081-.222v-.006a.383.383 0 0 0-.091-.249v.001c-.097-.125-.252-.211-.392-.27a2.812 2.812 0 0 0-.395-.131l-.021-.004a3.56 3.56 0 0 0-1.006-.141h-.005c-.09 0-.179.003-.265.008l-.017.001a6.462 6.462 0 0 1-.234.008l-.058.001c-.143 0-.282-.02-.413-.058l.011.003-.003-.001c-.223-.064-.424-.166-.641-.275.079.035.035.012-.01-.01l-.125-.058a3.747 3.747 0 0 0-.341-.156l-.028-.01a.65.65 0 0 0 .002-.046l-.001-.026v.001c.143.019.285.035.424.049h.001c.179.017.386-.009.538-.118a.449.449 0 0 0 .174-.24l.001-.003a.543.543 0 0 0-.021-.338l.001.004c-.146-.421-.604-.567-.959-.567-.364 0-.732.053-1.085.104-.115.017-.227.033-.338.047l-.033.004-.029.016c-.136.074-.174.231-.165.338a.31.31 0 0 0 .081.189zm1.916.099-.001-.001v.002z"/><path d="m29.952 27.946-.014.008a.265.265 0 0 1-.327-.044c-.092-.094-.097-.228-.043-.344l.007-.014.008-.012c.167-.241.395-.301.598-.322.056-.006.122-.009.184-.013l.116-.007-.017.001a.974.974 0 0 0 .232-.04c.139-.051.248-.162.385-.317l.028-.032c.122-.139.27-.307.47-.408l.002-.001a1.211 1.211 0 0 1-.276-.149l.004.003a2.333 2.333 0 0 1-.45-.437l-.004-.005a4.055 4.055 0 0 1-.656-1.114l-.01-.028a2.758 2.758 0 0 1-.197-.716l-.002-.015-.01-.06c-.029-.174-.068-.408-.019-.619.059-.28.271-.412.431-.513l.054-.034c.157-.093.255-.154.352-.217l-.052.032h.001c.099-.063.202-.128.303-.189.211-.135.421-.266.63-.397l.001-.001c.21-.131.419-.262.627-.397a6.72 6.72 0 0 0 .104-.071c.16-.111.345-.239.561-.309l.007-.002.012-.003a.98.98 0 0 1 .373-.048c.077.001.146.015.199.026a.642.642 0 0 0 .132.019.553.553 0 0 0 .223-.067.754.754 0 0 0 .058-.028c.077-.036.17-.081.262-.109l.007-.002.007-.001c.232-.048.4-.008.568.031l.061.014c.026.003.051-.003.09-.035.035-.029.061-.06.097-.101l.06-.068-.003.003.017-.017c.103-.099.232-.224.401-.296l.006-.003.006-.002c.095-.031.206-.055.321-.066l.007-.001.04-.005a.918.918 0 0 0 .286-.072l-.006.002c.077-.04.152-.088.233-.141l.003-.001c.08-.051.167-.108.259-.156l.001-.001c.23-.118.463-.172.715-.154h.003c.064.006.117.013.169.022l-.015-.002c.053.006.103.011.151.012.102.002.155-.017.182-.043.006-.006.017-.021.024-.07a1.24 1.24 0 0 0 .008-.083v-.009l.009-.096v-.003l.047-.315.001-.006.001-.005c.048-.232.113-.47.214-.695m-8.257 9.358 8.416-9.285m-8.416 9.285.013-.011c.035-.03.077-.044.147-.044a.96.96 0 0 1 .122.009l.033.004c.037.005.077.01.116.013.191.015.415.019.626-.073m-1.057.102 1.057-.102m7.2-9.252v-.001l.159.071m-.16-.07.16.07m-.16-.07c.086-.197.216-.406.458-.522l.007-.004.008-.003c.056-.021.111-.037.16-.051l.016-.005.117-.036a.493.493 0 0 0 .192-.11l.007-.007v.001c.042-.036.078-.07.117-.105l.108-.098c.08-.071.17-.145.27-.204s.215-.104.344-.114a.726.726 0 0 1 .402.095l.006.003a.287.287 0 0 1 .133.172v.002a.295.295 0 0 1-.02.198l.001-.002a.313.313 0 0 1-.32.177h.001l-.007-.001c-.072-.012-.145.013-.234.082-.063.051-.12.105-.173.162l-.001.001-.097.099-.006.005c-.211.188-.408.271-.654.351-.082.026-.137.083-.182.171a1.462 1.462 0 0 0-.096.289l-.002.01-.01.038-.001.004a3.21 3.21 0 0 0-.099.576l-.001.012-.019.166v.006h-.001a.728.728 0 0 1-.463.594c-.218.088-.477.093-.701.078m.899-1.96c.079-.181.188-.346.374-.435.056-.021.111-.037.165-.053.139-.042.268-.079.38-.188.042-.035.083-.074.125-.112.26-.239.543-.499.918-.293.125.075.031.24-.093.225-.237-.038-.417.148-.572.307l-.082.083c-.188.165-.358.24-.592.315-.265.085-.335.359-.395.591l-.01.039c-.062.216-.084.421-.107.624l-.017.157c-.078.496-.545.556-.981.526m-.01.174h.001l.009-.174m-.01.174a.936.936 0 0 0-.309.028l.006-.001a1.235 1.235 0 0 0-.287.13l.005-.003m.585-.155h-.001l.012-.174m-.001 0c-.28-.014-.452.046-.685.181m-4.827 5.66c-.42.03-.747-.301-.981-.586a3.918 3.918 0 0 1-.639-1.096 2.61 2.61 0 0 1-.185-.677l-.002-.014-.01-.064c-.03-.179-.063-.377-.021-.552.042-.206.189-.299.357-.405l.048-.031c.101-.06.202-.124.303-.188s.202-.127.304-.188c.21-.135.42-.266.631-.397s.42-.263.63-.398l.116-.079c.16-.111.319-.221.506-.281.109-.03.218-.06.327-.045.065 0 .125.013.183.024.054.011.107.022.16.022.125 0 .243-.057.365-.115.074-.035.15-.072.227-.095.193-.04.324-.009.492.029l.07.016c.161.026.264-.094.36-.205l.045-.051c.109-.105.218-.21.358-.271.095-.033.194-.045.293-.058.127-.016.254-.033.376-.091.086-.045.168-.097.249-.15s.164-.105.25-.15c.202-.105.405-.15.623-.135.03.002.063.007.099.012.17.022.394.051.523-.072.072-.07.079-.175.086-.275.002-.033.004-.063.008-.092l-.001.007-6.15 6.65zm0 0a.726.726 0 0 0 .483-.255m-.483.255.483-.255m0 0 .019-.026c.047-.063.117-.157.198-.17.07-.011.097.045.125.105a.437.437 0 0 0 .031.061m-.373.03.374-.03m-.001 0c.078.12.218.21.374.15.058-.022.107-.061.153-.097l.05-.038m-.577-.015.576.015m0-.001a.933.933 0 0 1 .296-.195m-.295.195.469-.237m-.174.043a1.39 1.39 0 0 1 .166-.041l.008-.001m-.174.042.054.166.007-.002m-.06-.164.066.16-.007.003m.114-.206a.787.787 0 0 0-.103.202m.103-.201-.103.202m-.01.003.01-.003m-.01.003a.723.723 0 0 0-.235.157l-.009.009-.01.007-.044.033-.044.035-.005.004a.611.611 0 0 1-.143.082l-.004.002c-.264.102-.481-.061-.583-.217l-.001-.003-.022-.038-.001-.003m1.111-.071-1.151-.004m1.151.004c.065-.019.132-.031.209-.044l.001-.003-.21.047zm-1.113.071a.129.129 0 0 1 .016-.017.187.187 0 0 1 .034-.029h.001l-.007.002-.013.001-.013-.001a.093.093 0 0 1-.034-.013.074.074 0 0 1-.021-.018m.037.075-.039.051-.03.04.004-.005-.005.006-.005.005a1.055 1.055 0 0 1-.198.171m.273-.268-.014-.028-.003-.007-.001-.002a.467.467 0 0 0-.02-.039l.001.002m0-.001-.237.342m.001 0a.851.851 0 0 0-.051-.009l-.005-.001.056.01zm0 0a.662.662 0 0 1-.055.034l-.005.002-.026.125m.086-.161c.113.024.218.07.301.11l.01.005.009.006c.058.037.109.082.15.118l.003.003c.042.037.074.065.106.086m0-.001-.001-.001-.088.15m.088-.149.006.003-.095.146m.089-.149.582.045c-.156.061-.514.195-.67.105m0 0c-.047-.03-.089-.067-.132-.104a1.154 1.154 0 0 0-.128-.103l-.004-.003a1.055 1.055 0 0 0-.305-.103l-.007-.001m0-.001a1.045 1.045 0 0 0-.644.077l.006-.003m.638-.074.017-.119-.655.195m0 0c-.168.083-.296.228-.422.371-.143.161-.284.322-.482.394-.125.042-.259.049-.39.056l1.293-.821zm-.648 1.285a1.48 1.48 0 0 0 .469-.339l.094-.095c.09-.092.17-.174.264-.245.129-.086.264-.122.387-.093l.006.001c.062.013.114.049.193.117l.022.019c.07.059.166.142.289.188l.003.001c.122.043.246.04.351.028.067-.008.143-.024.205-.035l.077-.015.006-.001.006-.001c.197-.047.39-.113.57-.235l.004-.003c.125-.09.282-.218.366-.395a.863.863 0 0 0 .079-.295.776.776 0 0 1 .007-.045l-.002.013c.013-.086.026-.134.063-.177l.005-.006.03-.038-.003.003c.036-.045.084-.104.118-.165a.467.467 0 0 0 .058-.333v.003a.451.451 0 0 0-.209-.298l-.002-.001a.682.682 0 0 0-.293-.096h-.003a1.279 1.279 0 0 0-.632.055l.009-.003a1.78 1.78 0 0 0-.302.127l.01-.005a1.034 1.034 0 0 0-.12.076l.003-.002a.484.484 0 0 0-.08-.077l-.001-.001c-.205-.172-.501-.162-.705-.045a.789.789 0 0 0-.243.232l-.015.021c-.063.081-.095.112-.131.123l-.007.003c-.031.011-.083.009-.163-.037a.922.922 0 0 1-.208-.172l-.001-.001-.004-.004a3.105 3.105 0 0 1-.671-1.03l-.007-.021v-.002a3.761 3.761 0 0 1-.181-.643l-.004-.025a2.101 2.101 0 0 1-.039-.222l-.001-.011a.548.548 0 0 1 .001-.147v.003c.005-.031.012-.042.013-.042.061-.059.146-.114.249-.173l.094-.052c.095-.051.167-.093.237-.138l-.017.01c.11-.068.216-.136.32-.203s.209-.134.317-.201l-.09-.148m-.791 5.292 2.356-5.962.106.012.045.006c.058.007.123.014.195.014.202 0 .391-.086.536-.152l.06-.026m-2.51.815c.161-.097.317-.202.473-.306.252-.168.504-.335.772-.474m-1.245.78c-.109.067-.214.135-.319.202s-.21.136-.319.203l.639-.406zm1.245-.781.077.157.001-.001.002-.001-.079-.154zm0 0c.172-.083.306-.066.455-.047.067.008.137.017.216.017.161 0 .312-.067.46-.135l.07-.031m-.001.001.063.163.003-.001m-.067-.162.039-.015c.07-.028.147-.06.226-.06.07 0 .138.018.203.035.038.01.074.019.108.025.172.03.327-.03.467-.135.063-.045.113-.102.163-.158s.101-.113.163-.158c.115-.101.253-.12.397-.141.069-.01.139-.02.211-.04.196-.054.355-.157.52-.264l.056-.035m-2.552.946.07.159-.003.002m-.001 0 2.577-.959m.001 0-.003.002-.087-.15m.09.148.003-.002-.094-.146m-2.809 5.134c.043 0 .087.001.131.015a.429.429 0 0 0-.093.087l-.001.001a.174.174 0 0 1-.037-.103zm-.867.06-.018.018-.012-.025-.006-.012.035.019zm-.049-.052a.764.764 0 0 0-.024-.045l.003.006a.182.182 0 0 1 .133-.009h-.001l.015.006h.001a.394.394 0 0 0-.074.089l-.001.002-.003.003-.042-.044-.001-.001-.007-.006zm.533-.248a1.36 1.36 0 0 0-.377.182l.004-.003-1.79 1.593c.093-.095.186-.191.294-.271.156-.104.343-.165.529-.12.12.024.206.097.292.173.073.061.146.123.238.157.141.05.304.017.454-.013l.091-.017c.195-.042.367-.114.52-.214l-.006.004c.125-.09.249-.195.311-.33a.69.69 0 0 0 .062-.236v-.003c.015-.104.029-.209.109-.302l.037-.045c.083-.102.162-.201.135-.345-.031-.165-.202-.24-.358-.255a1.106 1.106 0 0 0-.554.048l.008-.002zm-.592.151a.315.315 0 0 0-.061-.06l-.001-.001.063.061zm-1.556.045a3.297 3.297 0 0 1-.709-1.089l-.008-.022.717 1.111z"/><path d="M42.336 14.691c.129-.008.292-.028.433-.095a.603.603 0 0 0 .18-.127l.093.022-.044-.083a.524.524 0 0 0 .087-.218v-.003a.377.377 0 0 0-.03-.233l.001.002a.3.3 0 0 0-.217-.164h-.002c-.065-.014-.127-.027-.189-.042l-.049-.093a.843.843 0 0 0 .194-.134c.195-.157.338-.365.41-.607a.988.988 0 0 0 .025-.433 3.072 3.072 0 0 0-.026-.167l.004.023a1.685 1.685 0 0 1-.027-.199v-.014c0-.038.007-.074.019-.108l-.001.002c.01-.032.019-.058.031-.088l.027-.073c.042-.12.09-.298-.024-.482l-.003-.003c-.166-.253-.478-.28-.696-.205a.821.821 0 0 0-.18.081l.004-.002-.005.003a.485.485 0 0 1-.105.05l-.004.001-.007.002-.006.002-.015.005h-.001a.52.52 0 0 1-.057-.058l-.001-.001-.035-.043c-.107-.132-.241-.296-.453-.381a1.13 1.13 0 0 0-.324-.073h-.004a2.64 2.64 0 0 0-.089-.008l-.017-.001a1.706 1.706 0 0 1-.172-.019l.011.001-.049-.008-.012-.001-.041-.008.003.001a.781.781 0 0 1-.019-.053l-.001-.004-.007-.026a1.196 1.196 0 0 0-.04-.125l-.003-.01-.006-.008a.448.448 0 0 0-.329-.245.545.545 0 0 0-.361.089l.002-.001c-.015.008-.029.009-.057-.001a.65.65 0 0 1-.131-.071l-.026-.015a3.455 3.455 0 0 0-.421-.204l-.002-.001a4.826 4.826 0 0 0-.764-.299l-.036-.009-.014-.004c-.087-.028-.214-.07-.337-.078a.476.476 0 0 0-.424.166.252.252 0 0 0-.034.051l-.001.001a.419.419 0 0 0-.027.068l-.001.003a1.706 1.706 0 0 1-.094-.054l.013.007-.006-.003a1.236 1.236 0 0 0-.06-.035l-.007-.004a2.819 2.819 0 0 1-.532-.444l-.002-.002a1.843 1.843 0 0 1-.215-.322l-.005-.01a2.759 2.759 0 0 0-.239-.364c-.227-.295-.554-.321-.831-.306l-.008.001a3.128 3.128 0 0 0-.922.238c-.158.072-.29.144-.417.225l.013-.008-.013.007-.064.031-.011.004a.338.338 0 0 0-.059-.103.346.346 0 0 0-.193-.111h-.002a.39.39 0 0 0-.339.093l-.08-.022v.008a.796.796 0 0 1-.108-.067l.002.002c-.134-.1-.298-.223-.502-.277l-.006-.001a.695.695 0 0 0-.357.015l.005-.001a1.32 1.32 0 0 0-.125.04l-.007.003c-.04.014-.075.026-.111.035a.456.456 0 0 1-.374-.067l.002.001-.003-.002a.442.442 0 0 1-.187-.287v-.003a.494.494 0 0 1 .013-.189l-.001.003.012-.052c.015-.061.033-.137.04-.21v-.001c.021-.221-.056-.411-.125-.567L32 7.072c-.061-.136-.111-.246-.127-.369a.316.316 0 0 0-.164-.243l-.002-.001a.353.353 0 0 0-.255-.025l.003-.001c-.148.038-.317.181-.285.407v.001c.019.131.067.246.113.346l.051.106c.029.059.056.113.079.172l.003.006a.332.332 0 0 1 .019.202c-.007.04-.016.081-.028.129l-.001.006a1.666 1.666 0 0 0-.032.155l-.002.011-.001.007v.006c-.002.022-.002.047-.002.073 0 .475.295.881.711 1.045l.008.003c.22.088.454.104.68.071.077-.011.149-.041.198-.061l.007-.003a.629.629 0 0 1 .104-.038l.005-.001c.047.003.083.028.162.079l.04.026c.156.11.36.225.574.257.067.01.137.012.208.002a.68.68 0 0 0 .256.126.723.723 0 0 0 .457-.046c.115-.047.223-.116.307-.171l.024-.015a2.05 2.05 0 0 1 .842-.295l.01-.001a1.07 1.07 0 0 1 .132-.013l.023-.001c.028 0 .055.006.079.016l-.001-.001.008.005c.017.008.038.026.065.074.014.023.026.049.041.08l.008.018.04.081.003.007c.264.461.643.843 1.105 1.113.087.054.208.123.341.164a.612.612 0 0 0 .466-.022l-.004.002a.478.478 0 0 0 .222-.251l.001-.003.019.007.062.027.001.001c.022.01.047.021.071.03l.004.001c.289.103.563.221.84.353.046.022.094.05.152.083l.006.003c.058.033.123.071.192.104a.757.757 0 0 0 .496.078l.008-.001.006-.002a.644.644 0 0 0 .077.121l.003.004c.172.207.42.257.618.273h.001l.042.003c.201.015.317.023.411.114.026.026.051.056.081.092l.022.029c.022.028.047.061.072.09a.66.66 0 0 0 .312.22c.175.061.32.032.441-.014l.095-.04a.935.935 0 0 0-.016.333v-.005l.001.007.017.104c.043.263.067.41-.074.585l-.002.003a.549.549 0 0 1-.27.18l-.004.001-.006.002a.961.961 0 0 1-.093.029c-.024.007-.05.014-.085.026a.656.656 0 0 0-.213.107l.002-.001a.593.593 0 0 0-.237.383v.003a.494.494 0 0 0 .165.452l.001.001.007.006a.66.66 0 0 0 .058.041l.002.001a.674.674 0 0 0-.136.136l-.001.002c-.171.225-.191.489-.16.721l-.109.105.136.044.009.041.001.002a.329.329 0 0 0 .243.236h.002a.355.355 0 0 0 .191-.006c.003.024.003.053.003.093v.006c0 .044 0 .104.01.161l.001.017c.014.12.035.31.156.454l.019.024-.001.001-.008.007-.007.008c-.134.167-.174.38-.202.531l-.006.026-.001.008v.008a2.292 2.292 0 0 1-.07.44c-.028.071-.056.095-.081.109a.432.432 0 0 1-.19.029l-.23-.001a8.864 8.864 0 0 0-1.178.047l-.016.002-.015.005a.37.37 0 0 0-.243.229l-.001.003a.248.248 0 0 0 .026.207l-.001-.001a.256.256 0 0 0 .185.111h.001c.321.046.625.061.942.061.06 0 .125.003.198.007l.024.002c.064.003.132.008.202.01.153.003.327-.003.488-.058l.005-.001c.312-.117.441-.352.502-.589.03-.114.045-.232.058-.338l.001-.012c.013-.102.024-.192.042-.273a.33.33 0 0 1 .049-.084l-.001.001a.903.903 0 0 1 .056-.07l.043-.054c.07-.089.168-.225.156-.409l-.001-.005-.001-.006a.441.441 0 0 0-.092-.223l.001.001a.692.692 0 0 0-.127-.115l-.002-.001a.089.089 0 0 1-.032-.044v-.001a.337.337 0 0 1-.011-.086l.001-.019v.001-.022c0-.207.001-.546-.289-.749a.602.602 0 0 0-.172-.091l-.004-.001.002-.004v-.002a.158.158 0 0 1 .025-.046.038.038 0 0 1 .016-.012.513.513 0 0 1 .151-.025zm0 0h-.003l-.01-.174m.013.174h.002l-.015-.174m0 .001c-.171.015-.28.031-.342.195l.755-.295c-.117.07-.272.092-.413.1zm-.118-.715.001-.001h-.001z"/><path d="m31.633 6.878.004-.006.003-.006a.697.697 0 0 0 .077-.494l-.001-.005a.663.663 0 0 0-.126-.245l.001.001a.512.512 0 0 0-.148-.126l-.003-.001-.027-.017.007.004c-.001-.013-.003-.029-.003-.046v-.002a.528.528 0 0 0-.153-.326.68.68 0 0 0-.543-.168 1.197 1.197 0 0 0-.289.067l.008-.003-.071.024c-.054.019-.102.036-.157.05-.024.006-.056.001-.125-.039l-.059-.037-.046-.03-.012-.007a.83.83 0 0 0-.152-.076l-.006-.002a1.552 1.552 0 0 0-.664-.063 2.547 2.547 0 0 0-.143-.993l.006.018c.097-.045.191-.097.275-.161.202-.152.358-.374.348-.685l-.001-.008c-.022-.273-.198-.448-.372-.566h-.001c-.191-.127-.317-.241-.407-.426l-.001-.002a3.255 3.255 0 0 1-.107-.237l-.011-.03-.008-.021a4.384 4.384 0 0 0-.156-.345l.011.025c-.111-.213-.264-.428-.518-.563a.957.957 0 0 0-.665-.096l.006-.001a.878.878 0 0 0-.233.084.845.845 0 0 0-.281-.084h-.004a1.303 1.303 0 0 0-.679.109l.008-.003a2.833 2.833 0 0 0-.211.102l.016-.008-.003.001a2.226 2.226 0 0 1-.161.079l-.017.007c-.115.049-.207.067-.296.049l-.004-.001a1.5 1.5 0 0 1-.243-.077c.042.013.02.005-.001-.003l-.064-.02a1.118 1.118 0 0 0-.392-.083H24.819a.66.66 0 0 0-.408.14l.001-.001a.969.969 0 0 0-.234.291c-.026.045-.047.085-.067.122a1.777 1.777 0 0 1-.094.163l.005-.009a.522.522 0 0 1-.159.171l-.002.001a.538.538 0 0 1-.46.048l.004.001a2.758 2.758 0 0 1-.173-.078l.023.01h-.001a3.142 3.142 0 0 0-.136-.063l-.026-.01a1.189 1.189 0 0 0-.39-.097h-.014c-.243 0-.483.083-.678.152l-.067.024-.082.031a1.542 1.542 0 0 1-.212.072l-.012.003c-.093.022-.157.018-.205-.006a.343.343 0 0 0-.227-.043h.002a.422.422 0 0 0-.199.09l.001-.001c-.771.598-1.028 1.553-1.094 2.422l-.029-.044.003.005-.002-.004c-.296-.419-.813-.688-1.363-.435a1.164 1.164 0 0 0-.15.075l.006-.003a2.058 2.058 0 0 1-.058.028.325.325 0 0 1-.022-.013l.002.001-.012-.008a.626.626 0 0 0-.148-.081c-.23-.095-.44.016-.572.143a.317.317 0 0 0-.03.034l-.001.001a1.121 1.121 0 0 0-.029-.095l.003.009-.003-.007c-.184-.475-.755-.603-1.159-.444a1.145 1.145 0 0 0-.493.385.833.833 0 0 0-.467-.24l-.005-.001a.785.785 0 0 0-.684.21.339.339 0 0 0-.105.273v-.001a.372.372 0 0 0 .111.234.368.368 0 0 0 .512.018l.006-.005c.004-.005.019-.014.046-.012.016 0 .031.005.043.014.018.024.024.052.04.125l.006.029a.47.47 0 0 0 .191.313c.261.177.545.033.684-.14l.007-.007.004-.009c.038-.059.076-.128.109-.199l.004-.011c.018-.036.033-.068.051-.101a.496.496 0 0 1 .158-.192l.001-.001.006-.003a.262.262 0 0 1 .142-.044c.052-.001.086.013.106.032a.381.381 0 0 1 .049.158l.006.029c.012.075.03.182.078.274l.003.006.003.006c.059.101.145.18.249.229l.003.001a.497.497 0 0 0 .308.027l-.003.001a.91.91 0 0 0 .464-.289l.013-.015v-.001c.259.145.529.036.696-.031l.008-.003h.002a.858.858 0 0 1 .248-.078l.019-.001c.059 0 .113.022.155.057l.005.003c.165.114.26.318.32.546l.001.005c.015.054.026.118.04.2l.001.008c.013.081.029.175.056.266.055.184.166.39.431.457.139.036.27.021.378-.052a.53.53 0 0 0 .19-.262l.001-.004c.066-.184.069-.409.069-.526 0-.49.004-1.023.114-1.512.097-.433.275-.818.595-1.102.227.046.436.001.625-.06.072-.024.15-.053.225-.081-.007 0 .038-.016.082-.033l.052-.017a1.59 1.59 0 0 1 .332-.085c.094-.01.186.025.319.088l.04.02c.115.056.264.129.429.146.309.035.612-.053.858-.205l.004-.003c.263-.174.369-.399.472-.615l.04-.083.001-.003c.022-.047.04-.052.045-.054.014-.004.043-.007.102.009.057.015.119.04.195.071l.002.001c.071.029.157.064.239.083.394.09.727-.077 1.002-.223.103-.045.227-.097.339-.114l.03-.003H26.818c.046.005.065.024.076.045l.003.006a.361.361 0 0 0 .3.169l.018.001c.128 0 .24-.071.297-.177l.001-.002a.107.107 0 0 1 .034-.042h.061l-.007-.013c.013 0 .028.001.045.004a.488.488 0 0 1 .238.133c.087.096.147.218.209.366l.042.106c.045.115.095.243.158.358.074.157.181.292.299.407l.005.005.006.004c.059.049.125.09.179.123l.016.01a.85.85 0 0 1 .138.098l-.001-.001.008.008c.009.007.011.013.012.014l.001.008-.001.008a.167.167 0 0 1-.051.087.482.482 0 0 1-.193.104l-.003.001-.044-.082-.038.107c-.01.004-.058.017-.106.03l-.037.008a.338.338 0 0 0-.239.213l-.001.002a.363.363 0 0 0 .02.29l-.001-.002c.027.053.057.119.082.186l.005.014-.035.104.065-.019c.093.289.114.588.07.89l-.121.026.1.097-.008.04c-.056.245.167.502.434.416l.148-.028-.108.02.099.096.033-.124c.215-.044.402-.068.578-.014.039.017.077.04.127.07l.003.002c.049.029.108.064.174.091l.008.003a.977.977 0 0 0 .454.04l.01-.001.01-.002c.073-.018.141-.044.197-.065l.004-.002c.045-.019.1-.037.157-.052l.009-.002a.577.577 0 0 0 .214.372l.001.001.005.004.005.003c.027.019.059.037.082.051l.053.032-.005-.003c-.09.169-.043.348.089.44a.302.302 0 0 0 .225.052h-.002a.301.301 0 0 0 .208-.141l.001-.001zM20.446 5.661c0-.892.013-1.997.692-2.673L19.62 5.525c.019.064.031.138.044.215.042.248.088.527.362.596.404.104.42-.435.42-.675zm1.084-2.769c.198-.003.387-.074.579-.146.167-.063.335-.127.516-.148.163-.017.308.054.454.125l-1.55.168zm-1.489 3.144c0 .001 0 .001 0 0-.002 0-.002-.001 0-.003l.001-.001-.001.003z"/><path d="M15.356 4.488c-.017-.182-.17-.272-.289-.298a.5.5 0 0 0-.172-.217l-.002-.001a.506.506 0 0 0-.396-.089l.003-.001-.008.001-.008.002a.707.707 0 0 0-.2.1l.002-.001-.073.048.019-.012c-.037.025-.07.047-.103.066l-.006.003-.051.014c-.083-.119-.232-.147-.333-.137-.097.01-.232.066-.282.2-.209-.113-.435-.102-.63-.077h-.002c-.106.015-.149.003-.166-.01a.3.3 0 0 1-.06-.073l-.001-.001-.017-.026a1.744 1.744 0 0 0-.077-.11c-.182-.242-.434-.322-.645-.389a2.293 2.293 0 0 1-.128-.036l.082.022-.004-.002a15.725 15.725 0 0 0-3.479-.605l-.047-.002h-.002a22.357 22.357 0 0 0-1.783-.029h.026-.003c-.431.015-.919.093-1.315.341a1.364 1.364 0 0 0-.525.603l-.003.009-.019.042c-.019.046-.033.075-.046.104l.007-.016a.523.523 0 0 1-.055.096l.001-.002a.12.12 0 0 1-.021.024h-.002c-.013-.005-.024-.011-.035-.017l.001.001-.032-.019.006.003-.003-.001-.029-.017-.006-.003-.006-.003a.89.89 0 0 0-.387-.093h-.008l-.007.001a.707.707 0 0 0-.561.378c-.132.254-.145.545-.113.814s.109.534.181.748l.001.003a3.7 3.7 0 0 0 .718 1.213l-.003-.004a.594.594 0 0 0-.054.249c0 .182.074.332.135.447l.022.041a.925.925 0 0 1 .111.264l.001.007c.024.102.006.186-.038.235a.098.098 0 0 1-.065.037.497.497 0 0 1-.069.005h-.01a1.505 1.505 0 0 0-.099.006H4.2a.716.716 0 0 0-.48.198c-.079.07-.157.162-.223.241l-.076.089.004-.004v.001c-.219.248-.437.5-.655.751h-.001c-.218.252-.435.503-.653.75l-.001.002c-.063.073-.132.151-.206.232a7.938 7.938 0 0 0-.369.429c-.188.239-.358.51-.428.824-.116.482-.011.957.154 1.393a.655.655 0 0 0-.086.006l-.007.001-.008.002a.614.614 0 0 0-.395.32 1.537 1.537 0 0 0-.089.186l-.004.011-.026.066a1.73 1.73 0 0 1-.042.101c-.069.155-.142.306-.216.461v.001c-.074.153-.148.307-.219.466a3.355 3.355 0 0 1-.1.189l.009-.017c-.03.052-.066.121-.099.191l-.008.02c-.066.146-.127.328-.095.516.034.199.177.35.303.458.066.056.136.108.199.154l.026.019c.054.04.101.073.141.106l.001.001c.131.104.262.212.395.321v.001c.045.039.182.151.32.263l.103.08c.175.141.428.345.744.363.285.018.568-.093.733-.35l.003-.005.002-.004a.333.333 0 0 0 .023-.287l.001.002a.377.377 0 0 0-.16-.187l-.002-.001a.36.36 0 0 0-.247-.046h.002a.331.331 0 0 0-.231.167l-.001.002-.003.005a.057.057 0 0 1-.012.018l-.003.002s-.008.004-.033.001a.651.651 0 0 1-.242-.114 2.97 2.97 0 0 1-.294-.23l.003.003a4.344 4.344 0 0 1-.095-.083c-.048-.042-.09-.08-.119-.102l-.296-.24c-.097-.079-.195-.157-.295-.24H.845a1.881 1.881 0 0 0-.153-.11l-.007-.005a.366.366 0 0 1-.086-.075v-.001c-.001-.001-.008-.007.007-.05a.884.884 0 0 1 .038-.083l.004-.008c.014-.026.031-.061.045-.094.141-.282.276-.565.413-.851l.223-.464a.613.613 0 0 0 .031-.071l.001-.002v-.001l.016-.038.022.013.023.013.002.001.007.003.006.002a.82.82 0 0 0 .204.056l.124.258.045-.257a.689.689 0 0 0 .206-.064l-.004.002c.213-.103.214-.348.143-.489-.147-.306-.285-.624-.339-.939-.053-.31-.023-.608.157-.885.15-.23.344-.44.545-.658l.106-.115.004-.004c.248-.284.497-.57.733-.856.248-.285.499-.57.733-.858l.003-.003a.872.872 0 0 0 .028-.037l.003-.005.01-.013a.847.847 0 0 1 .054-.063l.017-.007s.013-.003.058 0l.042.004.029.003c.026.002.057.005.088.005h.01l.01-.001a.799.799 0 0 0 .414-.171c.292-.226.381-.562.346-.89a1.286 1.286 0 0 0-.179-.523l.003.006-.016-.028-.002-.003a1.368 1.368 0 0 1-.038-.072l-.005-.012a.371.371 0 0 0 .164-.218l.001-.003a.357.357 0 0 0-.088-.351c-.035-.033-.067-.066-.1-.1l-.001-.001.029-.097-.098.022a2.697 2.697 0 0 1-.513-.808l-.006-.018-.001-.003a3.76 3.76 0 0 1-.182-.555 1.28 1.28 0 0 1-.026-.53l.001-.003a.404.404 0 0 1 .015-.06l-.001.003a.157.157 0 0 1 .029.013l-.002-.001c.158.07.39.172.646.07.226-.089.349-.257.435-.412.025-.044.051-.095.076-.142l.04-.077a.98.98 0 0 1 .11-.17l.002-.003a.795.795 0 0 1 .36-.233c.153-.056.324-.087.49-.109a10.167 10.167 0 0 1 1.383-.029l-.022-.001h.001c1.032.029 2.064.163 3.082.386h.001c.281.061.556.12.814.193h.001c.022.007.058.016.095.024l.012.002.074.017a.389.389 0 0 1 .113.041c.043.028.065.06.108.125l.046.068.004.006c.142.188.337.348.621.369a1.189 1.189 0 0 0 .267-.007l-.006.001c.049-.005.088-.008.129-.008h-.002l.021.003c0 .101.044.191.114.253a.372.372 0 0 0 .386.068l-.002.001.039.038.044-.077a.918.918 0 0 0 .295-.255.829.829 0 0 0 .15.014.724.724 0 0 0 .424-.165l-.001.001.006.01.01.013a.596.596 0 0 0 .257.189l.004.001.007.003.007.002c.122.035.25.021.353-.049a.413.413 0 0 0 .18-.312l.001-.016-.001-.017z"/><path d="M2.554 16.995c0-.015-.015-.015-.031-.015.015.015.047.015.063.015h.015c-.031 0-.063-.015-.078-.015.015.015.031.03.047.03h.093c.015 0 .015 0 .031-.015-.016 0-.016 0-.031.015h.015c.016 0 .016 0 .031-.015.016 0 .016-.015.031-.03s.031-.045.015-.061c0-.015 0-.03-.015-.045 0-.015-.015-.015-.031-.031s-.015-.015-.031-.015h-.047c-.031 0-.047 0-.063.015 0 0-.015 0-.015.015-.015 0-.015.015-.031.015a.109.109 0 0 0-.031.074c.015-.015.015-.045.031-.06l-.031.03c-.016.015-.016.045-.016.061v-.045c-.015.015-.015.03-.015.045s0 .045.015.06h.031c.016-.015.031-.015.047-.03z"/><path d="M2.554 17.169a.19.19 0 0 0 .125-.047l.011-.01-.005.004a.15.15 0 0 1-.099.037h-.001v-.348h-.001a.195.195 0 0 0-.136.056l.005-.004a.16.16 0 0 1 .059-.031h.001a.24.24 0 0 1 .04-.006v.348zm0-.174.241.25.106-.103v-.147h-.348zm-.03-.016v-.348h-.863l.621.598.241-.25zm.171.016.241.25.621-.598h-.863v.348zm.015 0v-.348h-.141l-.101.097.241.25zm.047-.091h-.348v.148l.106.102.241-.25zm-.015-.044h-.348v.147l.106.103.241-.25zm-.172-.031v.348h.141l.101-.097-.241-.25zm-.016.016v.348h.348v-.348h-.348zm-.03.015v-.348h-.141l-.101.097.241.25zm-.031.074h-.348v.819l.589-.568-.241-.25zm-.016-.014h.348v-.819l-.589.568.241.25zm0 .105-.241.25.102.097h.14v-.348zm.031 0v.348h.141l.101-.097-.241-.25zm.394-.03v-.001a.362.362 0 0 0-.344-.361h-.001l-.033-.001v.696h-.011a.334.334 0 0 1-.306-.332h.696zm-.62.235a.402.402 0 0 0 .215.106h.002c.042.007.081.006.086.006v-.696c-.01 0 .005-.001.024.002.061.012.114.04.155.08l-.483.501zm.304.113h.016v-.696h-.016v.696zm.016-.696a.27.27 0 0 1 .04.003l.007.001-.008-.002-.018-.005a.375.375 0 0 0-.098-.013v.696h-.001c-.018 0-.035-.002-.053-.004h.002l-.019-.003c-.002-.001-.003-.001 0 0l.011.003a.532.532 0 0 0 .137.02h.001v-.696zm-.32.583c.003.003.03.029.061.052.029.021.11.075.227.075v-.696c.102 0 .167.047.181.057.015.011.026.022.014.01l-.483.501zm.288.127h.031v-.696h-.032v.696zm.032 0h.015v-.696h-.015v.696zm.015 0h.031v-.696h-.032v.696zm.031 0h.015v-.696h-.015v.696zm.016 0h.012a.37.37 0 0 0 .157-.037l-.002.001a.42.42 0 0 0 .084-.055l.022-.021-.483-.501.004-.003a.32.32 0 0 1 .18-.078h.001l.024-.001v.696zm.031-.71h-.012a.364.364 0 0 0-.238.091l-.023.021.483.501-.004.004a.321.321 0 0 1-.18.076H2.72l-.024.002v-.696zm-.031.71h.015v-.696h-.015v.696zm.015 0h.013a.377.377 0 0 0 .157-.037l-.002.001a.42.42 0 0 0 .084-.055l.022-.021-.483-.501.004-.003a.324.324 0 0 1 .181-.078h.001l.024-.001v.696zm.031-.014h.001a.365.365 0 0 0 .301-.159l.001-.001c.03-.043-.003.008-.029.033l-.483-.501a.424.424 0 0 0-.063.077l-.001.002.003-.006c.006-.008.033-.049.086-.083s.116-.057.185-.057v.696zm.273-.128a.419.419 0 0 0 .106-.164l.001-.003a.374.374 0 0 0-.091-.395l-.483.501a.32.32 0 0 1-.083-.336l-.001.002a.266.266 0 0 1 .068-.106l.483.501zm.122-.311s.002-.052-.013-.11a.402.402 0 0 0-.109-.185l-.483.501a.305.305 0 0 1-.081-.139v-.002c-.011-.042-.01-.079-.01-.065h.696zm-.016-.044a.36.36 0 0 0-.07-.214l.001.001c-.04-.056-.087-.086-.1-.095-.044-.028.007.003.032.028l-.483.501c.025.024.049.04.065.051l.015.009-.005-.003c-.007-.005-.049-.031-.086-.082a.328.328 0 0 1-.064-.195h.696zm-.137-.281-.022-.021a.377.377 0 0 0-.238-.091h-.014v.696l-.024-.001a.33.33 0 0 1-.183-.078l-.004-.004.483-.501zm-.273-.112h-.047v.696h.047v-.696zm-.047 0c-.002 0-.17-.016-.303.113l.483.501a.3.3 0 0 1-.148.078h-.002a.32.32 0 0 1-.036.004h.007v-.696zm-.062.362v-.348h-.011a.354.354 0 0 0-.048.005h.002a.373.373 0 0 0-.241.151l-.001.001a.363.363 0 0 0-.065.207h.696a.335.335 0 0 1-.308.332h-.001l-.012.001h-.01l-.001-.348zm-.016-.332a.363.363 0 0 0-.251.1l-.006.005.003-.002.01-.01a.323.323 0 0 1 .21-.078h.003v.696a.363.363 0 0 0 .251-.1l.006-.005-.002.002-.011.01a.323.323 0 0 1-.21.078h-.003v-.696zm-.272.112a.461.461 0 0 0-.138.325h.696v.001a.241.241 0 0 1-.075.175l-.483-.501zm.452.576a.391.391 0 0 0 .096-.147l.001-.003.006-.017c.001-.003 0-.002 0 0a.293.293 0 0 1-.072.106l-.483-.501a.39.39 0 0 0-.102.164l-.001.003c-.001.003-.001.002 0 0a.293.293 0 0 1 .072-.106l.483.501zm-.452-.561-.015.015-.015.015.483.501.015-.015.016-.015-.483-.501zm-.031.03a.398.398 0 0 0-.114.219v.002c-.008.045-.007.083-.007.09h.696c0-.01 0 .007-.003.029a.304.304 0 0 1-.088.161l-.483-.501zm.573.311v-.046h-.696v.046h.696zm-.589-.296a.396.396 0 0 0-.108.183l-.001.003c-.015.057-.013.109-.013.11h.696c0-.014.002.022-.009.065a.307.307 0 0 1-.081.14l-.483-.501zm-.122.296c0 .006 0 .045.007.089a.404.404 0 0 0 .115.221l.483-.501a.301.301 0 0 1 .087.159v.002c.003.022.003.039.003.029h-.696zm.364.408h.032v-.696h-.032v.696zm.272-.098c-.036.035-.075.051-.067.048a.408.408 0 0 0 .113-.078l-.483-.501c.037-.035.075-.052.067-.048s-.062.028-.114.078l.483.501z"/><path d="m2.832 17.278.003.003.016.013c.083.068.214.173.369.214a.64.64 0 0 0 .499-.039l-.004.002.09-.04-.011.005a.434.434 0 0 1 .048-.02l.003-.001c.007-.003.016-.005.025-.005s.018.002.027.005l.009.003c.077.023.138.053.21.088.032.016.066.033.104.05a.9.9 0 0 0 .426.095c.05-.001.097-.013.124-.019l.005-.001a.253.253 0 0 1 .052-.01h.001c.017 0 .026.003.045.013l.035.02-.003-.002.017.011c.021.013.048.029.079.045l.01.004c.135.056.275.076.417.056.061-.008.122-.024.172-.036l.01-.003a1.03 1.03 0 0 1 .167-.03.15.15 0 0 1 .048.007h-.001c.012.003.028.012.047.039l.001.001c.04.053.071.104.106.164l.044.073c.054.087.119.184.217.269.245.216.58.23.844.122.153-.051.288-.144.387-.213l.045-.031.014-.009c.093-.061.236-.155.298-.334a.285.285 0 0 0-.059-.291.33.33 0 0 0-.236-.106l-.036-.001a.511.511 0 0 0-.263.072l.002-.001c-.074.041-.141.096-.196.141l-.011.009c-.129.104-.2.15-.284.142h-.003c-.032-.002-.065-.019-.111-.085a.939.939 0 0 1-.064-.11l-.003-.006-.01-.02a2.003 2.003 0 0 0-.065-.118l-.002-.003c-.122-.186-.301-.367-.589-.407a.885.885 0 0 0-.222.005l.005-.001a3.367 3.367 0 0 0-.109.016l.017-.002-.008.001-.081.013-.102.02a.33.33 0 0 1-.057.007h-.001c-.017 0-.04-.003-.087-.033l-.004-.003a.814.814 0 0 0-.216-.097l-.006-.001a.728.728 0 0 0-.262-.016h.003-.002c-.042.004-.077.009-.106.013-.083.011-.123.017-.19-.003a1.68 1.68 0 0 1-.147-.073l.009.005-.015-.007a3.058 3.058 0 0 0-.152-.077.719.719 0 0 0-.441-.066l.004-.001a.64.64 0 0 0-.216.083l.003-.002-.01.006c-.048.026-.074.042-.1.05-.024.003-.056-.003-.108-.028a1.537 1.537 0 0 1-.096-.053l.006.003-.004-.003c-.031-.018-.067-.039-.104-.056a.949.949 0 0 0-.369-.107h-.003l-.031-.001a.44.44 0 0 0-.38.219l-.001.002-.003.004-.002.005a.223.223 0 0 0 .196.329h.005a.48.48 0 0 1 .323.124z"/><path d="m7.578 17.93.013-.003.011-.004c.257-.102.474-.171.748-.199h.001c.099-.012.231-.023.364-.03l.018-.001c.129-.01.264-.021.406-.045.461-.077.99-.253 1.232-.739l.003-.007c.014-.03.025-.06.035-.086v-.001l.031-.074a.276.276 0 0 1 .052-.084l.005-.005.004-.005h.001c.003-.004.009-.011.047-.013l.041-.001.043.001h-.002c.029 0 .067 0 .108-.003a.744.744 0 0 0 .395-.118v.001l.005-.003a.742.742 0 0 0 .17-.175l.002-.002a.295.295 0 0 1 .078-.083l.001-.001a.362.362 0 0 1 .121-.035h.002c.024-.004.057-.007.09-.01h.006l.09-.009c.167-.017.317-.049.478-.095.065-.016.125-.033.184-.049.231-.064.424-.117.641-.096h.005c.303.02.575.14.85.301.118.07.232.144.35.221l.061.04c.138.09.28.181.428.259l.007.003a.293.293 0 0 0 .424-.258.28.28 0 0 0-.084-.201c-.408-.44-.996-.819-1.608-.963a2.127 2.127 0 0 0-.924-.047l.013-.002-.002.001c-.143.025-.28.063-.407.097l-.1.028a2.174 2.174 0 0 1-.466.083h-.002a1.031 1.031 0 0 0-.437.106l.006-.003a1.155 1.155 0 0 0-.328.269c-.038.041-.06.047-.081.051s-.046.006-.071.006h-.018a1.69 1.69 0 0 0-.106.006l.008-.001h-.013a.67.67 0 0 0-.414.142l.001-.001a.929.929 0 0 0-.263.349l-.017.035c-.051.102-.087.175-.144.234l-.005.006c-.13.148-.327.215-.575.275a4.134 4.134 0 0 1-.417.049l-.031.003c-.144.012-.298.024-.449.049-.32.05-.659.157-.894.451a.22.22 0 0 0 .032.334h.001a.31.31 0 0 0 .249.055h-.002zm34.502-3.649-.007.021-.001.022-.047.602v.013c0 .036-.003.078-.007.129l-.001.003a1.411 1.411 0 0 0-.008.152v.002a.728.728 0 0 1-.003.056v.002a1.05 1.05 0 0 0-.004.083c0 .064.01.158.079.241l.006.007.007.007a.221.221 0 0 0 .304 0 .354.354 0 0 0 .099-.234v-.001c.003-.043.002-.097.001-.132v-.897a.187.187 0 0 0-.052-.162.204.204 0 0 0-.148-.063h-.003a.228.228 0 0 0-.214.149l-.001.002z"/><path d="M42.273 14.371a.123.123 0 0 0-.001.009l-.002.023a3.904 3.904 0 0 0-.028.415.854.854 0 0 1-.007.092l-.001.008a.748.748 0 0 0-.008.11v.001l-.001.035v.013l-.001.043.001.03v-.001a.34.34 0 0 0 .07.197l.007.01.01.008a.252.252 0 0 0 .173.072.22.22 0 0 0 .186-.1.337.337 0 0 0 .062-.186v-.001l.001-.035-.001-.037v.002l-.001-.013-.001-.036v-.211c0-.08-.004-.155-.008-.225v-.002c-.004-.072-.008-.138-.008-.208v-.002a.217.217 0 0 0-.217-.217H42.489a.214.214 0 0 0-.215.206zM28.821 3.939a7.192 7.192 0 0 0-.032.595c0 .037-.003.079-.007.129v.003a1.411 1.411 0 0 0-.008.152v.152l-.001.019v.002a.309.309 0 0 0-.003.045.25.25 0 0 0 .045.147.188.188 0 0 0 .161.092h.006a.187.187 0 0 0 .158-.086v-.001a.26.26 0 0 0 .051-.104v-.002c.008-.037.008-.074.008-.093v-.154c0-.037.003-.079.007-.129l.001-.003c.003-.045.008-.097.008-.146.015-.2.015-.399.015-.605v-.045l-.019-.038a.216.216 0 0 0-.191-.116h-.001a.203.203 0 0 0-.127.045.195.195 0 0 0-.072.141zM3.814 6.156v.013l.024.344.024.346v.005l.001.006c.007.054.01.105.015.162v.002c.004.056.008.115.017.181v.003a.735.735 0 0 1 .007.064v.01a.813.813 0 0 0 .007.077c.006.058.021.13.064.202a.189.189 0 0 0 .17.108h.003a.194.194 0 0 0 .104-.031.184.184 0 0 0 .081-.118c.038-.138.017-.271.003-.367l-.001-.01A3.595 3.595 0 0 1 4.319 7v-.007l-.001-.002a2.497 2.497 0 0 0-.016-.176 8.966 8.966 0 0 0-.031-.337v-.001a10.264 10.264 0 0 1-.031-.332l-.001-.023-.007-.022a.223.223 0 0 0-.21-.151.207.207 0 0 0-.207.207v.001z"/><path d="m4.097 6.481-.019.038v.046c0 .191 0 .375.016.574 0 .184.016.389.065.582.01.057.046.098.081.121a.196.196 0 0 0 .21 0h-.001a.18.18 0 0 0 .083-.132c.025-.152.022-.318.019-.458a4.006 4.006 0 0 1-.002-.117v-.016a4.276 4.276 0 0 1-.011-.172 3.802 3.802 0 0 0-.038-.412l-.004-.028-.013-.025a.216.216 0 0 0-.192-.116h-.002a.219.219 0 0 0-.192.115l-.001.001zM30.887 9.602l-3.11 9.969h-1.21l-2.525-7.603a7.18 7.18 0 0 1-.07-.237l-.063-.264c-.06.244-.108.412-.16.577l.021-.076-2.539 7.603h-1.21l-3.11-9.969h1.12c.12 0 .221.031.299.09a.397.397 0 0 1 .159.227l.001.003 2.059 6.929c.033.125.063.26.09.403.033.144.063.297.09.459.033-.162.065-.315.097-.459.037-.148.077-.282.118-.403l2.344-6.929a.506.506 0 0 1 .159-.215l.001-.001a.45.45 0 0 1 .289-.104h.4c.12 0 .218.031.292.09.073.06.13.137.166.226l.001.004 2.337 6.929c.042.121.079.25.111.39.037.139.072.285.104.438a8.968 8.968 0 0 1 .167-.828l2.066-6.929a.443.443 0 0 1 .152-.222l.001-.001a.47.47 0 0 1 .288-.098h1.062z"/></symbol><symbol id="icon-menu" viewBox="0 0 32 32"><path style="stroke:var(--color1,currentColor)" stroke-linejoin="round" stroke-linecap="round" stroke-width="1.6" d="M6.666 22.666h10.666M6.666 16h18.666M14.666 9.334h10.666"/></symbol><symbol id="icon-instagram" viewBox="0 0 32 32"><path d="M16 10a6 6 0 1 0 0 12 6 6 0 1 0 0-12zm0 10-.073.001a4 4 0 1 1 .077-7.999H16A4 4 0 0 1 16.004 20H16zm6-17H10a7.009 7.009 0 0 0-7 7v12a7.009 7.009 0 0 0 7 7h12a7.009 7.009 0 0 0 7-7V10a7.009 7.009 0 0 0-7-7zm5 19a5 5 0 0 1-5 5H10a5 5 0 0 1-5-5V10a5 5 0 0 1 5-5h12a5 5 0 0 1 5 5v12zM24 9.5a1.5 1.5 0 0 1-3 0 1.5 1.5 0 0 1 3 0z"/></symbol><symbol id="icon-telegram" viewBox="0 0 32 32"><path d="M29.609 3.273a1.12 1.12 0 0 0-1.153-.193l.008-.003L3.133 12.99a1.782 1.782 0 0 0-1.134 1.657c0 .861.613 1.58 1.426 1.743l.011.002L10 17.681v7.326a1.99 1.99 0 0 0 1.236 1.842l.013.005a1.983 1.983 0 0 0 2.189-.465l.001-.001 3.164-3.281 5.021 4.395a1.978 1.978 0 0 0 1.953.396l-.014.004a1.99 1.99 0 0 0 1.331-1.44l.003-.013 5.075-22.072a1.122 1.122 0 0 0-.359-1.1l-.001-.001zm-7.642 4.5-11.199 8.02-6.2-1.216 17.4-6.804zM12 25v-5.935l3.099 2.717L12 24.999zm10.941 1-10.336-9.063L27.481 6.276 22.941 26z"/></symbol><symbol id="icon-facebook" viewBox="0 0 32 32"><path d="M16 3C8.82 3 3 8.82 3 16s5.82 13 13 13 13-5.82 13-13c-.008-7.177-5.823-12.992-12.999-13H16zm1 23.953V19h3a1 1 0 0 0 0-2h-3v-3a2 2 0 0 1 2-2h2a1 1 0 0 0 0-2h-2a4 4 0 0 0-4 4v3h-3a1 1 0 0 0 0 2h3v7.953c-5.629-.529-10-5.231-10-10.954 0-6.075 4.925-11 11-11s11 4.925 11 11c0 5.723-4.371 10.425-9.956 10.951l-.044.003z"/></symbol><symbol id="icon-arrow-left" viewBox="0 0 195 32"><path d="M1.253 14.587c-.361.362-.585.861-.585 1.413s.224 1.052.585 1.413L13.98 30.142a2.001 2.001 0 0 0 2.83-2.83L5.494 15.999 16.809 4.686a2.001 2.001 0 0 0-2.83-2.83L1.254 14.585zM194.667 14h-192v4h192v-4z"/></symbol><symbol id="icon-arrow-right" viewBox="0 0 195 32"><path d="M193.415 17.413c.361-.362.584-.862.584-1.413s-.223-1.051-.584-1.413L180.687 1.858a2.001 2.001 0 0 0-2.83 2.83l11.315 11.313-11.315 11.313a2.001 2.001 0 0 0 2.83 2.828l-.001.001 12.728-12.728zM0 18h192v-4H0v4z"/></symbol><symbol id="icon-star" viewBox="0 0 35 32"><path fill="#ae990b" style="fill:var(--color3,#ae990b)" d="m17.455 0 4.617 11.1 11.984.96-9.13 7.823 2.788 11.695-10.259-6.268-10.259 6.266 2.788-11.695-9.13-7.818 11.984-.96L17.455 0z"/></symbol><symbol id="icon-bus" viewBox="0 0 32 32"><path d="M9.384 26.667h-.015a.64.64 0 0 1-.459-.192.642.642 0 0 1-.192-.459V26v.001-2.528c-.433-.188-.884-.588-1.351-1.201a3.374 3.374 0 0 1-.7-2.066v-.054.003V8.002c0-1.383.748-2.396 2.245-3.037 1.497-.643 3.861-.963 7.088-.963 3.344 0 5.736.308 7.176.925 1.437.616 2.157 1.641 2.157 3.075v12.153c0 .8-.233 1.504-.7 2.117s-.917 1.013-1.352 1.2v2.529a.644.644 0 0 1-.191.475.642.642 0 0 1-.459.192h-.017.001-.324a.644.644 0 0 1-.459-.192.643.643 0 0 1-.191-.458v-.017.001-2H10.358v2a.645.645 0 0 1-.192.475.642.642 0 0 1-.459.192h-.321zM8 14.667h16V8.718H8v5.949zm3.34 6.153c.413 0 .765-.144 1.051-.435.287-.291.429-.643.429-1.057 0-.416-.144-.767-.435-1.053a1.444 1.444 0 0 0-1.029-.428h-.031.002c-.413 0-.765.144-1.051.435-.265.263-.43.627-.43 1.03v.029-.001c0 .416.145.767.435 1.053.291.285.643.428 1.059.428zm9.333 0c.413 0 .764-.144 1.051-.435s.429-.643.429-1.057c0-.416-.144-.767-.435-1.053a1.444 1.444 0 0 0-1.029-.428h-.031.002a1.42 1.42 0 0 0-1.051.435c-.265.263-.43.628-.43 1.03v.028-.001c0 .416.144.767.435 1.053.291.285.643.428 1.057.428zM8.139 7.384h15.753c-.231-.685-.943-1.199-2.137-1.539-1.193-.341-3.107-.512-5.739-.512-2.617 0-4.523.173-5.717.52-1.193.345-1.915.856-2.16 1.531zm2.528 15.283h10.667c.733 0 1.36-.261 1.884-.783A2.576 2.576 0 0 0 24.001 20v-4h-16v4c0 .733.261 1.36.784 1.884a2.568 2.568 0 0 0 1.883.783z"/></symbol><symbol id="icon-card" viewBox="0 0 32 32"><path d="M28 5.251H4A2.754 2.754 0 0 0 1.249 8v16A2.754 2.754 0 0 0 4 26.751h24A2.754 2.754 0 0 0 30.751 24V8A2.754 2.754 0 0 0 28 5.249zM4 6.749h24c.689.001 1.249.56 1.251 1.251v1.251h-26.5V8c0-.691.56-1.249 1.249-1.251zm24 18.5H4A1.252 1.252 0 0 1 2.749 24V10.749h26.5V24c0 .689-.56 1.249-1.249 1.251zM9.645 17.628a2.635 2.635 0 0 0 0-5.27 2.635 2.635 0 0 0 0 5.27zm0-3.771a1.135 1.135 0 1 1 0 2.27 1.135 1.135 0 1 1 0-2.27zm0 4.954A4.548 4.548 0 0 0 5.241 22.3l-.006.031-.005.031a.75.75 0 0 0 1.463.331l.001-.005v-.004a3.028 3.028 0 0 1 2.952-2.371c1.431 0 2.63.995 2.943 2.331l.004.02.004.02a.75.75 0 0 0 1.464-.332l.001.005v.005c-.471-2.039-2.265-3.538-4.412-3.552h-.002l-.001.001zM26 13.251h-8a.751.751 0 0 0-.002 1.498H26a.751.751 0 0 0 .002-1.498H26zm0 4h-8a.751.751 0 0 0-.002 1.498H26a.751.751 0 0 0 .002-1.498H26zm0 4h-8a.751.751 0 0 0-.002 1.498H26a.75.75 0 0 0 .002-1.5H26z"/></symbol><symbol id="icon-face" viewBox="0 0 32 32"><path d="M12 21.667c-.467 0-.861-.16-1.183-.484a1.604 1.604 0 0 1-.484-1.151v-.034V20c0-.467.161-.861.484-1.183.321-.323.716-.484 1.183-.484s.861.16 1.184.484c.321.321.483.716.483 1.183s-.16.861-.483 1.183c-.292.299-.7.484-1.151.484h-.035H12zm8 0c-.467 0-.861-.16-1.183-.484a1.604 1.604 0 0 1-.484-1.151v-.034V20c0-.467.161-.861.484-1.183.321-.323.716-.484 1.183-.484s.861.16 1.184.484c.321.321.483.716.483 1.183s-.16.861-.483 1.183c-.292.299-.7.484-1.151.484h-.035H20zm-4 7.666c2.979 0 5.5-1.033 7.567-3.1s3.1-4.589 3.1-7.567c0-.533-.033-1.049-.1-1.549a6.423 6.423 0 0 0-.382-1.495l.015.044a11.939 11.939 0 0 1-2.83.334h-.039.002-.055c-2.065 0-4.019-.48-5.755-1.334l.077.034a13.41 13.41 0 0 1-4.581-3.609L13 11.067a13.206 13.206 0 0 1-3.046 4.512l-.004.004a13.026 13.026 0 0 1-4.527 2.855l-.09.029v.2c0 2.977 1.033 5.5 3.1 7.567s4.589 3.1 7.567 3.1zm-3.056-20.91c1.087 2.171 2.623 3.755 4.608 4.751 1.984.996 3.912 1.493 5.781 1.493.413 0 .821-.021 1.221-.063s.797-.111 1.195-.207c-.848-1.983-2.161-3.545-3.941-4.685A10.456 10.456 0 0 0 16.046 8h-.048H16c-.584 0-1.12.033-1.605.101a9.504 9.504 0 0 0-1.451.321zm-7.428 8.518c1.373-.611 2.763-1.611 4.172-3 1.408-1.391 2.229-3.137 2.464-5.241a10.298 10.298 0 0 0-4.413 3.185l-.015.02a10.48 10.48 0 0 0-2.2 4.977l-.008.059zm-.949-1.661a11.46 11.46 0 0 1 2.565-4.707l-.009.01a11.232 11.232 0 0 1 4.337-2.99l.077-.026a5.606 5.606 0 0 0-1.756-1.452l-.03-.015a4.914 4.914 0 0 0-2.297-.562h-.062.003c-1.48 0-2.733.512-3.756 1.536-1.023 1.025-1.533 2.28-1.533 3.764 0 .933.224 1.787.676 2.56a5.575 5.575 0 0 0 1.766 1.867l.021.013zm11.438 15.387h-.074c-1.665 0-3.248-.348-4.681-.975l.075.029a12.184 12.184 0 0 1-3.814-2.566 12.135 12.135 0 0 1-2.535-3.731l-.03-.078a11.482 11.482 0 0 1-.947-4.607v-.077.004c0-.351.015-.697.044-1.043.029-.344.08-.677.156-.999a6.516 6.516 0 0 1-2.48-2.351l-.016-.029a6.375 6.375 0 0 1-.934-3.339v-.071.004c0-1.844.643-3.411 1.933-4.7C3.99 4.849 5.555 4.205 7.401 4.205c1.127 0 2.163.261 3.109.787a6.654 6.654 0 0 1 2.32 2.107c.433-.129.96-.242 1.5-.317l.06-.007a11.965 11.965 0 0 1 1.608-.108c1.66 0 3.22.315 4.68.944a12.17 12.17 0 0 1 3.811 2.566 12.13 12.13 0 0 1 2.535 3.73l.03.078c.597 1.356.944 2.938.944 4.6v.083-.004.077c0 1.664-.347 3.246-.974 4.679l.029-.075a12.203 12.203 0 0 1-2.564 3.813v-.001a12.12 12.12 0 0 1-3.731 2.536l-.078.03a11.478 11.478 0 0 1-4.602.946h-.08.004z"/></symbol><symbol id="icon-ticket" viewBox="0 0 32 32"><path d="M30 13.751a.753.753 0 0 0 .751-.751V8A.75.75 0 0 0 30 7.249H2A.75.75 0 0 0 1.249 8v5c0 .413.336.751.751.751a2.25 2.25 0 0 1 0 4.498.75.75 0 0 0-.751.751v5c0 .413.336.751.751.751h28a.752.752 0 0 0 .751-.751v-5a.75.75 0 0 0-.751-.751 2.25 2.25 0 0 1 0-4.498zm-.751 5.922v3.576H2.75v-3.576a3.764 3.764 0 0 0 3-3.673 3.753 3.753 0 0 0-2.949-3.665l-.025-.005-.025-.004V8.75h26.5v3.576a3.763 3.763 0 0 0-3.001 3.673 3.75 3.75 0 0 0 2.976 3.669l.023.004z"/></symbol><symbol id="icon-close" viewBox="0 0 32 32"><path fill="currentColor" stroke="currentColor" style="stroke:currentColor" stroke-linejoin="round" stroke-linecap="round" stroke-width="1.6" d="M24 24 8 8m16 0L8 24"/></symbol></defs></svg>