<svg xmlns="http://www.w3.org/2000/svg" viewBox="0 0 291.48 251.95"><defs><clipPath id="a"><path d="M271.13 20.76c-31.4-28.57-78.4-25.62-106.88-3.51-6 4.93-12.15 10.17-18.51 15.7a987.196 987.196 0 0 0-18.51-15.7C98.75-4.86 51.76-7.81 20.35 20.76 5.23 35.8.22 56 0 75.15c.09 19.34 5 37.62 16.82 53.15 4.88 6.15 10.07 12.5 15.56 18.95 32.73 39 78.13 80.61 113.36 104.7 35.23-24.09 80.63-65.72 113.36-104.7a661.52 661.52 0 0 0 15.56-18.95c11.83-15.53 16.73-33.81 16.82-53.15-.21-19.15-5.23-39.35-20.35-54.39Z" fill="none"/></clipPath></defs><g clip-path="url('#a')"><path fill="#005bbb" d="M0 0h291.48v125.97H0z"/><path fill="#ffd500" d="M0 125.97h291.48v125.97H0z"/></g></svg>