<svg aria-hidden="true" style="position: absolute; width: 0; height: 0; overflow: hidden;" version="1.1" xmlns="http://www.w3.org/2000/svg" xmlns:xlink="http://www.w3.org/1999/xlink">
<defs>
<symbol id="icon-logo" viewBox="0 0 45 32">
<path  d="M13.563 15.779c0.048 0.395 0.397 0.594 0.638 0.71l0.038 0.021c0.125 0.066 0.216 0.115 0.31 0.205 0.035 0.034 0.063 0.065 0.095 0.101 0.024 0.027 0.051 0.057 0.085 0.093 0.070 0.073 0.155 0.153 0.265 0.211 0.239 0.125 0.471 0.061 0.652-0.054l0.003 0.004 0.006 0.006c0.028 0.029 0.052 0.061 0.073 0.095l0.001 0.002 0.013 0.021c0.022 0.035 0.051 0.079 0.083 0.118 0.138 0.188 0.338 0.303 0.575 0.322h0.040l0.010-0.001 0.013 0.052c0.026 0.111 0.047 0.203 0.059 0.306v0.001c0.014 0.118 0.018 0.234 0.021 0.355v0.070c0.001 0.097 0.003 0.197 0.009 0.296 0.001 0.221 0.081 0.438 0.284 0.596 0.073 0.060 0.158 0.102 0.234 0.134 0.037 0.016 0.074 0.031 0.109 0.045l0.007 0.003c0.038 0.015 0.072 0.029 0.105 0.043 0.141 0.063 0.188 0.111 0.2 0.169l0.001 0.006 0.017 0.076c0.035 0.157 0.072 0.33 0.222 0.506v0.001c0.050 0.056 0.107 0.115 0.158 0.169l0.082 0.086c0.071 0.077 0.129 0.151 0.174 0.237l0.001 0.002c0.166 0.309 0.263 0.653 0.363 1.002 0.035 0.121 0.069 0.243 0.106 0.364l0.001 0.005 0.004 0.010-0.002-0.001-0.005-0.002c-0.118-0.049-0.236-0.088-0.393-0.088-0.090 0-0.16 0.026-0.217 0.054-0.023 0.012-0.045 0.025-0.063 0.035l-0.007 0.004-0.017 0.010-0.007-0.006c-0.026-0.023-0.056-0.044-0.088-0.060l-0.002-0.001c-0.064-0.035-0.141-0.056-0.222-0.056-0.060 0-0.117 0.011-0.169 0.032l0.003-0.001c-0.035 0.012-0.067 0.028-0.093 0.040l-0.035 0.017-0.038 0.019c-0.035 0.017-0.049 0.019-0.050 0.019h-0.002c-0.008-0.001-0.012-0.003-0.013-0.003s-0.002-0.001-0.002-0.002v-0c-0.001-0.002-0.008-0.014-0.005-0.040v-0.002c0.002-0.011 0.002-0.024 0.002-0.038 0-0.062-0.019-0.119-0.051-0.166l0.001 0.001c-0.035-0.050-0.082-0.088-0.137-0.112l-0.002-0.001c-0.045-0.020-0.097-0.031-0.151-0.031-0.056 0-0.109 0.012-0.157 0.033l0.002-0.001c-0.045 0.020-0.079 0.036-0.113 0.054l0.009-0.004-0.044-0.025-0.007 0.053c-0.279 0.157-0.492 0.404-0.602 0.7l-0.003 0.009c-0.074 0.181-0.090 0.373-0.073 0.557 0.005 0.061 0.017 0.118 0.026 0.165v0.001c0.010 0.051 0.017 0.088 0.021 0.122 0.004 0.056-0.004 0.080-0.035 0.107-0.040 0.035-0.082 0.064-0.129 0.097l-0.051 0.038c-0.077 0.055-0.145 0.114-0.207 0.179l-0.001 0.001-0.006 0.006c-0.146 0.177-0.217 0.369-0.279 0.55l-0.002 0.006-0.042 0.146c-0.038 0.134-0.077 0.274-0.141 0.394-0.029 0.062-0.072 0.114-0.124 0.152l-0.001 0.001c-0.033 0.021-0.079 0.034-0.153 0.015l-0.002-0.001c-0.027-0.007-0.057-0.011-0.089-0.011-0.198 0-0.358 0.16-0.359 0.357v0c-0 0.008-0.001 0.016-0.001 0.025 0 0.055 0.007 0.108 0.020 0.159l-0.001-0.004-0.067 0.052 0.102 0.040c0.019 0.040 0.041 0.074 0.066 0.105l-0.001-0.001c0.076 0.097 0.177 0.161 0.271 0.209 0.070 0.036 0.148 0.068 0.218 0.097l0.063 0.026c0.088 0.037 0.156 0.070 0.207 0.108 0.179 0.146 0.379 0.227 0.591 0.23s0.417-0.073 0.61-0.208c0.083-0.056 0.159-0.12 0.227-0.178l0.028-0.024c0.060-0.052 0.113-0.099 0.169-0.14 0.124-0.092 0.237-0.141 0.378-0.125l0.003 0.001c0.27 0.025 0.512 0.223 0.544 0.452l0.001 0.003c0.024 0.158 0.159 0.278 0.322 0.278 0.098 0 0.186-0.044 0.246-0.112l0-0c0.039-0.050 0.063-0.114 0.063-0.184 0-0.025-0.003-0.050-0.009-0.073l0 0.002c-0.114-0.694-0.89-1.151-1.572-0.96-0.226 0.063-0.397 0.207-0.534 0.323l-0.004 0.003c-0.148 0.125-0.26 0.218-0.398 0.259l-0.004 0.001c-0.056 0.018-0.090 0.010-0.138-0.021-0.035-0.023-0.065-0.044-0.093-0.066l0.002 0.002-0.013-0.010c-0.049-0.039-0.103-0.076-0.16-0.109l-0.006-0.003c0.107-0.095 0.195-0.209 0.257-0.325 0.084-0.152 0.137-0.33 0.184-0.486 0.014-0.050 0.028-0.097 0.042-0.14 0.063-0.195 0.136-0.343 0.27-0.445l0.049-0.035c0.118-0.087 0.27-0.198 0.358-0.367 0.132-0.239 0.073-0.47 0.030-0.638l-0.013-0.052c-0.008-0.038-0.013-0.083-0.013-0.128 0-0.144 0.047-0.278 0.127-0.385l-0.001 0.002c0.136 0.13 0.321 0.21 0.524 0.21 0.104 0 0.203-0.021 0.293-0.058l-0.005 0.002v0.001l0.008-0.003c0.015-0.007 0.029-0.015 0.040-0.022l0.026 0.023c0.016 0.015 0.035 0.028 0.054 0.039l0.002 0.001c0.087 0.049 0.232 0.109 0.381 0.060 0.057-0.015 0.107-0.039 0.151-0.070l-0.001 0.001 0.013-0.008c0.029-0.019 0.040-0.027 0.056-0.033l0.010-0.004 0.009-0.005c0.010-0.006 0.021-0.010 0.061 0.004 0.022 0.008 0.047 0.021 0.081 0.038l0.012 0.006c0.029 0.015 0.065 0.033 0.102 0.049l0.006 0.003c0.184 0.071 0.447 0.099 0.664-0.027l0.001-0.001c0.133-0.077 0.225-0.214 0.238-0.372l0-0.002c0.013-0.132-0.019-0.264-0.052-0.368-0.030-0.097-0.059-0.198-0.089-0.301-0.124-0.42-0.256-0.87-0.449-1.27-0.105-0.215-0.241-0.399-0.403-0.554l-0.001-0.001-0.059-0.065-0.001-0.001-0.056-0.060c-0.026-0.029-0.048-0.062-0.064-0.098l-0.001-0.002c-0.014-0.042-0.021-0.083-0.029-0.141-0.008-0.1-0.035-0.191-0.076-0.274l0.002 0.004-0.004-0.007c-0.097-0.164-0.24-0.292-0.412-0.368l-0.006-0.002c-0.052-0.026-0.116-0.053-0.182-0.076l-0.012-0.004c-0.038-0.013-0.056-0.020-0.075-0.027l0.018 0.006c-0.058-0.018-0.108-0.047-0.149-0.084l0 0-0.008-0.008c-0.004-0.003-0.007-0.008-0.009-0.012l-0-0c-0.002-0.006-0.004-0.014-0.004-0.021v-0c-0-0.007-0.001-0.016-0.001-0.024 0-0.013 0-0.025 0.001-0.037l-0 0.002 0.001-0.014c0.001-0.023 0.003-0.052 0.003-0.082v-0.426l-0.001-0.006c-0.016-0.259-0.048-0.561-0.132-0.835v-0.003c-0.042-0.146-0.137-0.265-0.262-0.337l-0.003-0.001c-0.102-0.052-0.222-0.082-0.35-0.082-0.012 0-0.024 0-0.036 0.001l0.002-0c-0.041 0-0.070-0.015-0.116-0.073-0.021-0.026-0.040-0.055-0.063-0.090-0.039-0.064-0.081-0.119-0.128-0.171l0.001 0.001c-0.179-0.205-0.505-0.387-0.838-0.223-0.030 0.012-0.056 0.028-0.079 0.046l0.001-0c-0.083-0.081-0.178-0.15-0.282-0.204l-0.007-0.003c-0.084-0.042-0.187-0.084-0.292-0.118l-0.017-0.005-0.077-0.026c-0.104-0.033-0.176-0.059-0.247-0.087l0.030 0.010c-0.185-0.072-0.319-0.155-0.398-0.291l-0.017-0.029-0.028-0.021c-0.057-0.047-0.131-0.075-0.212-0.075-0.004 0-0.008 0-0.011 0h0.001c-0.058 0.003-0.109 0.028-0.146 0.067l-0 0c-0.033 0.035-0.053 0.083-0.053 0.135 0 0.015 0.002 0.029 0.005 0.043l-0-0.001zM18.785 22.232v0z"></path>
<path  d="M22.454 21.694l0.014-0.174c-0.077-0.007-0.167-0.010-0.258-0.010-0.504 0-0.981 0.115-1.406 0.32l0.019-0.008c-0.207 0.096-0.445 0.243-0.612 0.442-0.079 0.090-0.14 0.198-0.178 0.316l-0.002 0.006-0.138-0.012 0.116 0.111c-0.017 0.113-0.007 0.233 0.040 0.36l0.003 0.007c0.025 0.063 0.066 0.115 0.117 0.154l0.001 0.001c0.047 0.034 0.103 0.058 0.163 0.069l0.002 0 0.011 0.002 0.012 0.001c0.167 0.010 0.274 0.147 0.258 0.269v0.003c-0.007 0.072-0.047 0.132-0.104 0.168l-0.001 0.001c-0.074 0.045-0.162 0.075-0.256 0.084l-0.002 0h-0.001c-0.085 0.012-0.173 0.016-0.271 0.021l-0.049 0.003c-0.113 0.006-0.236 0.013-0.358 0.038-0.122 0.021-0.231 0.057-0.332 0.107l0.007-0.003-0.008 0.004c-0.026 0.014-0.056 0.033-0.079 0.049l-0.019 0.013c-0.017 0.012-0.037 0.023-0.058 0.033l-0.003 0.001c-0.064-0.078-0.161-0.128-0.269-0.128-0.136 0-0.253 0.078-0.31 0.192l-0.001 0.002-0.005 0.009-0.003 0.009c-0.002 0.005-0.003 0.008-0.005 0.011l0.001-0.003h-0.166l0.104 0.152c-0.052 0.125-0.093 0.212-0.135 0.299l0.014-0.032c-0.021-0.022-0.044-0.045-0.067-0.068l-0.003-0.003-0.014-0.121-0.070 0.034-0.001-0.001c-0.062-0.057-0.145-0.091-0.235-0.091-0.046 0-0.089 0.009-0.129 0.025l0.002-0.001c-0.125 0.044-0.214 0.161-0.214 0.298 0 0.011 0.001 0.021 0.002 0.032l-0-0.001v0.002l-0.081 0.039 0.093 0.089c0.051 0.518 0.139 1.023 0.24 1.523 0.031 0.168 0.19 0.211 0.286 0.198 0.104-0.015 0.23-0.101 0.23-0.261 0-0.275-0.007-0.55-0.024-0.825 0.018 0.003 0.040 0.005 0.061 0.005 0.009 0 0.018-0 0.027-0.001l-0.001 0c0.112-0.007 0.208-0.071 0.259-0.163l0.001-0.002 0.002-0.003 0.065-0.125 0.107-0.021-0.063-0.066c0.058-0.114 0.117-0.23 0.172-0.345 0.035 0.006 0.070 0.009 0.107 0.009 0.147 0 0.262-0.056 0.348-0.106 0.029-0.016 0.054-0.031 0.075-0.045 0.051-0.031 0.087-0.053 0.132-0.069 0.138-0.046 0.282-0.050 0.458-0.055l0.044-0.001c0.186-0.006 0.406-0.017 0.621-0.115l0.006-0.003c0.361-0.183 0.572-0.584 0.514-0.976l-0.001-0.006c-0.057-0.317-0.276-0.545-0.544-0.66 0.036-0.050 0.078-0.092 0.126-0.127l0.002-0.001c0.143-0.111 0.34-0.197 0.476-0.248 0.279-0.102 0.602-0.162 0.938-0.162 0.067 0 0.133 0.002 0.198 0.007l-0.009-0c0.097 0.007 0.188-0.024 0.253-0.091 0.054-0.059 0.087-0.138 0.087-0.224 0-0.177-0.138-0.321-0.312-0.332l-0.001-0-0.013 0.173zM22.454 21.694c0.202 0.015 0.202 0.315 0 0.3-0.060-0.004-0.13-0.007-0.2-0.007-0.358 0-0.701 0.063-1.019 0.179l0.021-0.007-1.046 0.442c0.101-0.279 0.414-0.495 0.688-0.622 0.384-0.186 0.835-0.295 1.312-0.295 0.086 0 0.171 0.004 0.256 0.011l-0.011-0.001z"></path>
<path  d="M22.193 22.038c0.042 0.045 0.1 0.076 0.164 0.083l0.001 0c0.004 0.058 0.016 0.111 0.035 0.161l-0.001-0.004-0.099 0.095 0.159 0.021c0.070 0.095 0.16 0.17 0.266 0.219l0.004 0.002 0.011 0.006 0.011 0.003c0.010 0.003 0.046 0.016 0.088 0.033-0.039 0.053-0.063 0.119-0.063 0.19 0 0.019 0.002 0.039 0.005 0.057l-0-0.002c0.019 0.109 0.088 0.198 0.182 0.246l0.002 0.001 0.008 0.060 0.088-0.027c0.010 0.002 0.022 0.004 0.035 0.005l0.002 0c0.232 0.026 0.45 0.12 0.684 0.236l0.141 0.072c0.188 0.097 0.391 0.2 0.602 0.27h0.001c0.334 0.108 0.669 0.106 0.978 0.099l0.074-0.002c0.288-0.007 0.553-0.014 0.817 0.043 0.104 0.022 0.214 0.053 0.307 0.090l-0.016 0.010c-0.090 0.044-0.181 0.096-0.262 0.142l-0.091 0.051-0.007 0.003c-0.477 0.291-0.939 0.645-1.339 1.046l-0.056 0.053c-0.063 0.059-0.139 0.131-0.205 0.205-0.098 0.103-0.174 0.229-0.219 0.368l-0.002 0.007-0.001 0.003c-0.012 0.044-0.019 0.093-0.019 0.145 0 0.088 0.020 0.171 0.056 0.245l-0.001-0.003c0.062 0.125 0.177 0.225 0.341 0.249h0.001c0.153 0.021 0.299-0.022 0.415-0.059l0.073-0.024c0.093-0.031 0.167-0.056 0.243-0.066h0.001c0.088-0.013 0.146 0.007 0.167 0.028 0.029 0.030 0.055 0.063 0.078 0.098l0.002 0.003 0.003 0.005c0.029 0.042 0.070 0.099 0.12 0.15l0.007 0.007 0.008 0.006c0.086 0.066 0.202 0.141 0.355 0.141 0.054 0 0.104-0.008 0.141-0.014l0.006-0.001c0.035-0.006 0.054-0.009 0.070-0.010l0.003 0.007 0.003 0.006c0.053 0.090 0.083 0.209 0.098 0.346 0.014 0.136 0.011 0.279 0.003 0.41-0.006 0.097-0.019 0.195-0.035 0.301l-0.009 0.068c-0.019 0.122-0.031 0.263-0.033 0.407v0.002c0.002 0.286 0.081 0.581 0.376 0.812 0.501 0.392 1.178 0.271 1.633-0.021 0.23-0.143 0.419-0.331 0.591-0.502 0.042-0.041 0.081-0.081 0.122-0.12l0.004-0.004c0.129-0.134 0.257-0.25 0.388-0.369 0.089-0.081 0.179-0.163 0.273-0.253 0.125-0.106 0.11-0.266 0.051-0.362-0.052-0.087-0.145-0.144-0.252-0.144-0.034 0-0.067 0.006-0.098 0.017l0.002-0.001c-0.294 0.095-0.519 0.278-0.713 0.469-0.077 0.077-0.153 0.157-0.225 0.234l-0.053 0.056c-0.090 0.096-0.177 0.186-0.267 0.266-0.159 0.14-0.352 0.246-0.565 0.304l-0.010 0.002c-0.205 0.047-0.376 0.014-0.499-0.136l-0.001-0.001c-0.057-0.069-0.081-0.16-0.081-0.285 0-0.093 0.013-0.185 0.026-0.285l0.015-0.12c0.049-0.28 0.065-0.554 0.015-0.847-0.030-0.218-0.081-0.543-0.295-0.769l-0.006-0.005c-0.092-0.085-0.209-0.145-0.338-0.166l-0.004-0-0.009-0.001c-0.016-0.001-0.034-0.002-0.053-0.002-0.033 0-0.065 0.003-0.097 0.008l0.003-0-0.049 0.007-0.007 0.001c-0.008 0.001-0.022 0.003-0.037 0.005l-0.005 0c-0.008 0.001-0.016 0.002-0.025 0.002-0.005 0-0.010-0-0.015-0.001l0.001 0c-0.023-0.029-0.045-0.058-0.069-0.092l-0.001-0.001c-0.033-0.047-0.063-0.086-0.094-0.125l0.003 0.004-0.014-0.014c-0.102-0.091-0.226-0.158-0.364-0.191l-0.006-0.001-0.011-0.003c-0.068-0.014-0.145-0.022-0.225-0.022-0.044 0-0.087 0.002-0.13 0.007l0.005-0c0.134-0.133 0.273-0.264 0.412-0.387 0.407-0.334 0.862-0.612 1.352-0.863l0.002-0.001c0.090-0.048 0.218-0.127 0.298-0.237 0.047-0.061 0.077-0.138 0.081-0.222l0-0.001c0-0.001 0-0.003 0-0.005 0-0.095-0.034-0.182-0.091-0.249l0 0.001c-0.097-0.125-0.252-0.211-0.392-0.27-0.114-0.048-0.252-0.095-0.395-0.131l-0.021-0.004c-0.301-0.090-0.648-0.141-1.006-0.141-0.002 0-0.003 0-0.005 0h0c-0.090 0-0.179 0.003-0.265 0.008l-0.017 0.001c-0.081 0.004-0.158 0.007-0.234 0.008-0.017 0.001-0.037 0.001-0.058 0.001-0.143 0-0.282-0.020-0.413-0.058l0.011 0.003-0.003-0.001c-0.223-0.064-0.424-0.166-0.641-0.275 0.079 0.035 0.035 0.012-0.010-0.010l-0.125-0.058c-0.095-0.050-0.216-0.106-0.341-0.156l-0.028-0.010c0.001-0.014 0.002-0.030 0.002-0.046 0-0.009-0-0.017-0.001-0.026l0 0.001c0.143 0.019 0.285 0.035 0.424 0.049h0.001c0.179 0.017 0.386-0.009 0.538-0.118 0.083-0.058 0.145-0.142 0.174-0.24l0.001-0.003c0.011-0.041 0.017-0.089 0.017-0.138 0-0.071-0.013-0.138-0.038-0.2l0.001 0.004c-0.146-0.421-0.604-0.567-0.959-0.567-0.364 0-0.732 0.053-1.085 0.104-0.115 0.017-0.227 0.033-0.338 0.047l-0.033 0.004-0.029 0.016c-0.136 0.074-0.174 0.231-0.165 0.338 0.005 0.073 0.035 0.139 0.081 0.189l-0-0zM24.109 22.137l-0.001-0.001c0 0 0 0 0 0.001s0 0-0 0.001v-0z"></path>
<path  d="M29.952 27.946l-0.014 0.008c-0.039 0.023-0.085 0.037-0.135 0.037-0.075 0-0.143-0.031-0.192-0.081l-0-0c-0.092-0.094-0.097-0.228-0.043-0.344l0.007-0.014 0.008-0.012c0.167-0.241 0.395-0.301 0.598-0.322 0.056-0.006 0.122-0.009 0.184-0.013 0.048-0.002 0.082-0.005 0.116-0.007l-0.017 0.001c0.088-0.007 0.163-0.017 0.232-0.040 0.139-0.051 0.248-0.162 0.385-0.317l0.028-0.032c0.122-0.139 0.27-0.307 0.47-0.408l0.002-0.001c-0.104-0.040-0.194-0.090-0.276-0.149l0.004 0.003c-0.173-0.128-0.322-0.274-0.45-0.437l-0.004-0.005c-0.271-0.326-0.496-0.704-0.656-1.114l-0.010-0.028c-0.092-0.212-0.162-0.459-0.197-0.716l-0.002-0.015-0.010-0.060c-0.029-0.174-0.068-0.408-0.019-0.619 0.059-0.28 0.271-0.412 0.431-0.513l0.054-0.034c0.157-0.093 0.255-0.154 0.352-0.217l-0.052 0.032h0.001c0.099-0.063 0.202-0.128 0.303-0.189 0.211-0.135 0.421-0.266 0.63-0.397l0.001-0.001c0.21-0.131 0.419-0.262 0.627-0.397 0.033-0.022 0.068-0.046 0.104-0.071 0.16-0.111 0.345-0.239 0.561-0.309l0.007-0.002 0.012-0.003c0.097-0.027 0.232-0.064 0.373-0.048 0.077 0.001 0.146 0.015 0.199 0.026 0.061 0.013 0.098 0.019 0.132 0.019 0.061 0 0.128-0.023 0.223-0.067 0.018-0.008 0.038-0.017 0.058-0.028 0.077-0.036 0.17-0.081 0.262-0.109l0.007-0.002 0.007-0.001c0.232-0.048 0.4-0.008 0.568 0.031l0.061 0.014c0.026 0.003 0.051-0.003 0.090-0.035 0.035-0.029 0.061-0.060 0.097-0.101 0.022-0.026 0.041-0.047 0.060-0.068l-0.003 0.003 0.017-0.017c0.103-0.099 0.232-0.224 0.401-0.296l0.006-0.003 0.006-0.002c0.095-0.031 0.206-0.055 0.321-0.066l0.007-0.001 0.040-0.005c0.103-0.009 0.198-0.034 0.286-0.072l-0.006 0.002c0.077-0.040 0.152-0.088 0.233-0.141l0.003-0.001c0.080-0.051 0.167-0.108 0.259-0.156l0.001-0.001c0.23-0.118 0.463-0.172 0.715-0.154h0.003c0.064 0.006 0.117 0.013 0.169 0.022l-0.015-0.002c0.053 0.006 0.103 0.011 0.151 0.012 0.102 0.002 0.155-0.017 0.182-0.043 0.006-0.006 0.017-0.021 0.024-0.070 0.003-0.024 0.006-0.050 0.008-0.083v-0.009c0.002-0.029 0.005-0.063 0.009-0.096v-0.003l0.047-0.315 0.001-0.006 0.001-0.005c0.048-0.232 0.113-0.47 0.214-0.695M29.952 27.946l8.416-9.285M29.952 27.946l0.013-0.011c0.035-0.030 0.077-0.044 0.147-0.044 0.036 0 0.075 0.003 0.122 0.009l0.033 0.004c0.037 0.005 0.077 0.010 0.116 0.013 0.191 0.015 0.415 0.019 0.626-0.073M29.952 27.946l1.057-0.102M38.209 18.592v-0.001l0.159 0.071M38.208 18.592l0.16 0.070M38.208 18.592c0.086-0.197 0.216-0.406 0.458-0.522l0.007-0.004 0.008-0.003c0.056-0.021 0.111-0.037 0.16-0.051l0.016-0.005c0.043-0.013 0.081-0.024 0.117-0.036 0.075-0.023 0.139-0.061 0.192-0.11l-0 0 0.007-0.007v0.001c0.042-0.036 0.078-0.070 0.117-0.105 0.033-0.030 0.067-0.062 0.108-0.098 0.080-0.071 0.17-0.145 0.27-0.204s0.215-0.104 0.344-0.114c0.132-0.009 0.266 0.021 0.402 0.095l0.006 0.003c0.065 0.038 0.113 0.099 0.133 0.172l0 0.002c0.006 0.021 0.009 0.046 0.009 0.072 0 0.045-0.011 0.088-0.029 0.126l0.001-0.002c-0.051 0.107-0.159 0.179-0.283 0.179-0.012 0-0.025-0.001-0.037-0.002l0.001 0-0.007-0.001c-0.072-0.012-0.145 0.013-0.234 0.082-0.063 0.051-0.12 0.105-0.173 0.162l-0.001 0.001-0.097 0.099-0.006 0.005c-0.211 0.188-0.408 0.271-0.654 0.351-0.082 0.026-0.137 0.083-0.182 0.171-0.039 0.085-0.073 0.185-0.096 0.289l-0.002 0.010-0.010 0.038-0.001 0.004c-0.047 0.17-0.082 0.371-0.099 0.576l-0.001 0.012-0.019 0.166v0.006h-0.001c-0.049 0.313-0.23 0.499-0.463 0.594-0.218 0.088-0.477 0.093-0.701 0.078M38.367 18.662c0.079-0.181 0.188-0.346 0.374-0.435 0.056-0.021 0.111-0.037 0.165-0.053 0.139-0.042 0.268-0.079 0.38-0.188 0.042-0.035 0.083-0.074 0.125-0.112 0.26-0.239 0.543-0.499 0.918-0.293 0.125 0.075 0.031 0.24-0.093 0.225-0.237-0.038-0.417 0.148-0.572 0.307-0.028 0.029-0.056 0.058-0.082 0.083-0.188 0.165-0.358 0.24-0.592 0.315-0.265 0.085-0.335 0.359-0.395 0.591l-0.010 0.039c-0.062 0.216-0.084 0.421-0.107 0.624l-0.017 0.157c-0.078 0.496-0.545 0.556-0.981 0.526M37.47 20.622h0.001l0.009-0.174M37.47 20.622c-0.021-0.002-0.046-0.003-0.071-0.003-0.082 0-0.162 0.011-0.238 0.031l0.006-0.001c-0.107 0.033-0.201 0.077-0.287 0.13l0.005-0.003M37.47 20.621h-0.001l0.012-0.174M37.48 20.447c-0.28-0.014-0.452 0.046-0.685 0.181M31.968 26.288c-0.42 0.030-0.747-0.301-0.981-0.586-0.28-0.33-0.483-0.705-0.639-1.096-0.087-0.201-0.152-0.434-0.185-0.677l-0.002-0.014-0.010-0.064c-0.030-0.179-0.063-0.377-0.021-0.552 0.042-0.206 0.189-0.299 0.357-0.405l0.048-0.031c0.101-0.060 0.202-0.124 0.303-0.188s0.202-0.127 0.304-0.188c0.21-0.135 0.42-0.266 0.631-0.397s0.42-0.263 0.63-0.398l0.116-0.079c0.16-0.111 0.319-0.221 0.506-0.281 0.109-0.030 0.218-0.060 0.327-0.045 0.065 0 0.125 0.013 0.183 0.024 0.054 0.011 0.107 0.022 0.16 0.022 0.125 0 0.243-0.057 0.365-0.115 0.074-0.035 0.15-0.072 0.227-0.095 0.193-0.040 0.324-0.009 0.492 0.029l0.070 0.016c0.161 0.026 0.264-0.094 0.36-0.205l0.045-0.051c0.109-0.105 0.218-0.21 0.358-0.271 0.095-0.033 0.194-0.045 0.293-0.058 0.127-0.016 0.254-0.033 0.376-0.091 0.086-0.045 0.168-0.097 0.249-0.15s0.164-0.105 0.25-0.15c0.202-0.105 0.405-0.15 0.623-0.135 0.030 0.002 0.063 0.007 0.099 0.012 0.17 0.022 0.394 0.051 0.523-0.072 0.072-0.070 0.079-0.175 0.086-0.275 0.002-0.033 0.004-0.063 0.008-0.092l-0.001 0.007-6.15 6.65zM31.968 26.288c0.202-0.015 0.358-0.12 0.483-0.255M31.968 26.288l0.483-0.255M32.451 26.033l0.019-0.026c0.047-0.063 0.117-0.157 0.198-0.17 0.070-0.011 0.097 0.045 0.125 0.105 0.009 0.021 0.019 0.042 0.031 0.061M32.451 26.033l0.374-0.030M32.824 26.003c0.078 0.12 0.218 0.21 0.374 0.15 0.058-0.022 0.107-0.061 0.153-0.097l0.050-0.038M32.824 26.003l0.576 0.015M33.4 26.017c0.094-0.090 0.188-0.15 0.296-0.195M33.401 26.017l0.469-0.237M33.696 25.823c0.047-0.015 0.106-0.030 0.166-0.041l0.008-0.001M33.696 25.823l0.054 0.166 0.007-0.002M33.697 25.823l0.066 0.16-0.007 0.003M33.87 25.78c-0.045 0.063-0.079 0.132-0.103 0.202M33.87 25.781l-0.103 0.202M33.757 25.986l0.010-0.003M33.757 25.986c-0.086 0.036-0.159 0.083-0.235 0.157l-0.009 0.009-0.010 0.007c-0.017 0.013-0.031 0.023-0.044 0.033l-0 0c-0.012 0.010-0.028 0.023-0.044 0.035l-0.005 0.004c-0.043 0.033-0.091 0.061-0.143 0.082l-0.004 0.002c-0.264 0.102-0.481-0.061-0.583-0.217l-0.001-0.003c-0.007-0.011-0.014-0.024-0.022-0.038l-0.001-0.003M33.767 25.983l-1.151-0.004M33.767 25.983c0.065-0.019 0.132-0.031 0.209-0.044l0.001-0.003-0.21 0.047zM32.654 26.054c0.005-0.006 0.010-0.012 0.016-0.017l-0 0c0.010-0.011 0.022-0.021 0.034-0.029l0.001-0-0.007 0.002c-0.004 0.001-0.008 0.001-0.013 0.001s-0.009-0-0.013-0.001l0 0c-0.013-0.002-0.024-0.007-0.034-0.013l0 0c-0.008-0.005-0.016-0.011-0.021-0.018l-0-0M32.654 26.054c-0.014 0.017-0.026 0.033-0.039 0.051s-0.022 0.029-0.030 0.040l0.004-0.005-0.005 0.006-0.005 0.005c-0.058 0.063-0.123 0.122-0.198 0.171M32.654 26.054c-0.003-0.005-0.008-0.017-0.014-0.028l-0.003-0.007-0.001-0.002c-0.007-0.015-0.013-0.027-0.020-0.039l0.001 0.002M32.617 25.979l-0.237 0.342M32.381 26.321c-0.013-0.003-0.032-0.006-0.051-0.009l-0.005-0.001 0.056 0.010zM32.381 26.321c-0.016 0.011-0.035 0.023-0.055 0.034l-0.005 0.002-0.026 0.125M32.381 26.321c0.113 0.024 0.218 0.070 0.301 0.11l0.010 0.005 0.009 0.006c0.058 0.037 0.109 0.082 0.15 0.118l0.003 0.003c0.042 0.037 0.074 0.065 0.106 0.086M32.96 26.648l-0.001-0.001-0.088 0.15M32.959 26.648l0.006 0.003-0.095 0.146M32.959 26.648l0.582 0.045c-0.156 0.061-0.514 0.195-0.67 0.105M32.871 26.798c-0.047-0.030-0.089-0.067-0.132-0.104-0.040-0.037-0.083-0.072-0.128-0.103l-0.004-0.003c-0.090-0.047-0.195-0.084-0.305-0.103l-0.007-0.001M32.295 26.483c-0.061-0.013-0.132-0.020-0.204-0.020-0.157 0-0.306 0.035-0.44 0.097l0.006-0.003M32.295 26.483l0.017-0.119-0.655 0.195M31.657 26.559c-0.168 0.083-0.296 0.228-0.422 0.371-0.143 0.161-0.284 0.322-0.482 0.394-0.125 0.042-0.259 0.049-0.39 0.056l1.293-0.821zM31.009 27.844c0.195-0.081 0.343-0.214 0.469-0.339l0.094-0.095c0.090-0.092 0.17-0.174 0.264-0.245 0.129-0.086 0.264-0.122 0.387-0.093l0.006 0.001c0.062 0.013 0.114 0.049 0.193 0.117l0.022 0.019c0.070 0.059 0.166 0.142 0.289 0.188l0.003 0.001c0.122 0.043 0.246 0.040 0.351 0.028 0.067-0.008 0.143-0.024 0.205-0.035l0.077-0.015 0.006-0.001 0.006-0.001c0.197-0.047 0.39-0.113 0.57-0.235l0.004-0.003c0.125-0.090 0.282-0.218 0.366-0.395 0.054-0.106 0.070-0.218 0.079-0.295 0.003-0.023 0.005-0.034 0.007-0.045l-0.002 0.013c0.013-0.086 0.026-0.134 0.063-0.177l0.005-0.006c0.012-0.015 0.021-0.027 0.030-0.038l-0.003 0.003c0.036-0.045 0.084-0.104 0.118-0.165 0.042-0.069 0.067-0.153 0.067-0.242 0-0.031-0.003-0.061-0.009-0.091l0 0.003c-0.026-0.128-0.103-0.234-0.209-0.298l-0.002-0.001c-0.085-0.052-0.185-0.086-0.293-0.096l-0.003-0c-0.062-0.011-0.133-0.017-0.206-0.017-0.149 0-0.293 0.025-0.426 0.072l0.009-0.003c-0.113 0.036-0.21 0.078-0.302 0.127l0.010-0.005c-0.045 0.025-0.084 0.049-0.12 0.076l0.003-0.002c-0.024-0.029-0.051-0.055-0.080-0.077l-0.001-0.001c-0.205-0.172-0.501-0.162-0.705-0.045-0.113 0.061-0.192 0.164-0.243 0.232l-0.015 0.021c-0.063 0.081-0.095 0.112-0.131 0.123l-0.007 0.003c-0.031 0.011-0.083 0.009-0.163-0.037-0.080-0.049-0.149-0.106-0.208-0.172l-0.001-0.001-0.004-0.004c-0.287-0.292-0.517-0.642-0.671-1.030l-0.007-0.021v-0.002c-0.073-0.188-0.137-0.412-0.181-0.643l-0.004-0.025c-0.015-0.062-0.029-0.142-0.039-0.222l-0.001-0.011c-0.003-0.022-0.004-0.047-0.004-0.072s0.002-0.050 0.005-0.075l-0 0.003c0.005-0.031 0.012-0.042 0.013-0.042 0.061-0.059 0.146-0.114 0.249-0.173l0.094-0.052c0.095-0.051 0.167-0.093 0.237-0.138l-0.017 0.010c0.11-0.068 0.216-0.136 0.32-0.203s0.209-0.134 0.317-0.201l-0.090-0.148M31.009 27.843l2.356-5.962c0.035 0.003 0.067 0.007 0.106 0.012l0.045 0.006c0.058 0.007 0.123 0.014 0.195 0.014 0.202 0 0.391-0.086 0.536-0.152l0.060-0.026M31.797 22.55c0.161-0.097 0.317-0.202 0.473-0.306 0.252-0.168 0.504-0.335 0.772-0.474M31.797 22.55c-0.109 0.067-0.214 0.135-0.319 0.202s-0.21 0.136-0.319 0.203l0.639-0.406zM33.042 21.769l0.077 0.157 0.001-0.001 0.002-0.001-0.079-0.154zM33.042 21.769c0.172-0.083 0.306-0.066 0.455-0.047 0.067 0.008 0.137 0.017 0.216 0.017 0.161 0 0.312-0.067 0.46-0.135l0.070-0.031M34.242 21.574l0.063 0.163 0.003-0.001M34.241 21.574l0.039-0.015c0.070-0.028 0.147-0.060 0.226-0.060 0.070 0 0.138 0.018 0.203 0.035 0.038 0.010 0.074 0.019 0.108 0.025 0.172 0.030 0.327-0.030 0.467-0.135 0.063-0.045 0.113-0.102 0.163-0.158s0.101-0.113 0.163-0.158c0.115-0.101 0.253-0.12 0.397-0.141 0.069-0.010 0.139-0.020 0.211-0.040 0.196-0.054 0.355-0.157 0.52-0.264l0.056-0.035M34.242 21.574l0.070 0.159-0.003 0.002M34.308 21.735l2.577-0.959M36.886 20.776l-0.003 0.002-0.087-0.15M36.886 20.776c0.001 0 0.002-0.001 0.003-0.002l-0.094-0.146M33.986 25.762c0.043 0 0.087 0.001 0.131 0.015-0.036 0.025-0.067 0.054-0.093 0.087l-0.001 0.001c-0.022-0.028-0.036-0.064-0.037-0.103v-0zM33.119 25.822l-0.018 0.018-0.012-0.025-0.006-0.012 0.035 0.019zM33.070 25.77c-0.010-0.020-0.017-0.033-0.024-0.045l0.003 0.006c0.023-0.011 0.050-0.018 0.078-0.018 0.019 0 0.038 0.003 0.055 0.009l-0.001-0 0.015 0.006h0.001c-0.029 0.026-0.054 0.056-0.074 0.089l-0.001 0.002-0.003 0.003-0.042-0.044-0.001-0.001-0.007-0.006zM33.603 25.522c-0.142 0.044-0.266 0.105-0.377 0.182l0.004-0.003-1.79 1.593c0.093-0.095 0.186-0.191 0.294-0.271 0.156-0.104 0.343-0.165 0.529-0.12 0.12 0.024 0.206 0.097 0.292 0.173 0.073 0.061 0.146 0.123 0.238 0.157 0.141 0.050 0.304 0.017 0.454-0.013l0.091-0.017c0.195-0.042 0.367-0.114 0.52-0.214l-0.006 0.004c0.125-0.090 0.249-0.195 0.311-0.33 0.033-0.070 0.055-0.151 0.062-0.236l0-0.003c0.015-0.104 0.029-0.209 0.109-0.302l0.037-0.045c0.083-0.102 0.162-0.201 0.135-0.345-0.031-0.165-0.202-0.24-0.358-0.255-0.055-0.010-0.119-0.015-0.184-0.015-0.13 0-0.254 0.022-0.37 0.063l0.008-0.002zM33.011 25.673c-0.018-0.023-0.038-0.043-0.061-0.060l-0.001-0.001 0.063 0.061zM31.455 25.718c-0.303-0.309-0.546-0.679-0.709-1.089l-0.008-0.022 0.717 1.111z"></path>
<path  d="M42.336 14.691c0.129-0.008 0.292-0.028 0.433-0.095 0.070-0.033 0.13-0.075 0.18-0.127l0-0 0.093 0.022-0.044-0.083c0.044-0.063 0.074-0.137 0.087-0.218l0-0.003c0.004-0.021 0.007-0.045 0.007-0.070 0-0.058-0.013-0.114-0.037-0.163l0.001 0.002c-0.042-0.086-0.122-0.147-0.217-0.164l-0.002-0c-0.065-0.014-0.127-0.027-0.189-0.042l-0.049-0.093c0.067-0.035 0.134-0.077 0.194-0.134 0.195-0.157 0.338-0.365 0.41-0.607 0.049-0.161 0.042-0.305 0.025-0.433-0.009-0.069-0.017-0.118-0.026-0.167l0.004 0.023c-0.012-0.057-0.021-0.127-0.027-0.199l-0-0.006c-0-0.002-0-0.005-0-0.008 0-0.038 0.007-0.074 0.019-0.108l-0.001 0.002c0.010-0.032 0.019-0.058 0.031-0.088l0.027-0.073c0.042-0.12 0.090-0.298-0.024-0.482l-0.003-0.003c-0.166-0.253-0.478-0.28-0.696-0.205-0.067 0.021-0.125 0.048-0.18 0.081l0.004-0.002-0.005 0.003c-0.031 0.020-0.067 0.037-0.105 0.050l-0.004 0.001-0.007 0.002-0.006 0.002c-0.004 0.002-0.009 0.003-0.015 0.005l-0.001 0c-0.021-0.018-0.039-0.037-0.057-0.058l-0.001-0.001-0.035-0.043c-0.107-0.132-0.241-0.296-0.453-0.381-0.096-0.038-0.208-0.064-0.324-0.073l-0.004-0c-0.015-0.002-0.052-0.005-0.089-0.008l-0.017-0.001c-0.062-0.004-0.118-0.010-0.172-0.019l0.011 0.001-0.049-0.008-0.012-0.001c-0.015-0.002-0.028-0.005-0.041-0.008l0.003 0.001c-0.006-0.015-0.013-0.034-0.019-0.053l-0.001-0.004-0.007-0.026c-0.010-0.036-0.024-0.086-0.040-0.125l-0.003-0.010-0.006-0.008c-0.074-0.134-0.186-0.225-0.329-0.245-0.017-0.002-0.037-0.003-0.057-0.003-0.113 0-0.217 0.034-0.304 0.092l0.002-0.001c-0.015 0.008-0.029 0.009-0.057-0.001-0.035-0.012-0.070-0.033-0.122-0.065 0.014 0.008 0.003 0.001-0.009-0.006l-0.026-0.015c-0.135-0.081-0.285-0.146-0.421-0.204l-0.002-0.001c-0.224-0.112-0.489-0.217-0.764-0.299l-0.036-0.009-0.014-0.004c-0.087-0.028-0.214-0.070-0.337-0.078-0.136-0.010-0.304 0.017-0.424 0.166-0.013 0.015-0.025 0.033-0.034 0.051l-0.001 0.001c-0.010 0.020-0.020 0.044-0.027 0.068l-0.001 0.003c-0.041-0.022-0.068-0.038-0.094-0.054l0.013 0.007-0.006-0.003c-0.016-0.010-0.038-0.023-0.060-0.035l-0.007-0.004c-0.202-0.131-0.377-0.278-0.532-0.444l-0.002-0.002c-0.081-0.097-0.154-0.206-0.215-0.322l-0.005-0.010c-0.066-0.114-0.141-0.243-0.239-0.364-0.227-0.295-0.554-0.321-0.831-0.306l-0.008 0.001c-0.313 0.031-0.626 0.111-0.922 0.238-0.158 0.072-0.29 0.144-0.417 0.225l0.013-0.008-0.013 0.007c-0.015 0.008-0.039 0.020-0.064 0.031l-0.011 0.004c-0.014-0.039-0.034-0.073-0.059-0.103l0 0c-0.049-0.056-0.117-0.096-0.193-0.111l-0.002-0c-0.023-0.005-0.049-0.008-0.076-0.008-0.101 0-0.194 0.038-0.263 0.101l0-0-0.080-0.022v0.008c-0.041-0.021-0.075-0.043-0.108-0.067l0.002 0.002c-0.134-0.1-0.298-0.223-0.502-0.277l-0.006-0.001c-0.045-0.010-0.096-0.016-0.149-0.016-0.072 0-0.142 0.011-0.208 0.031l0.005-0.001c-0.045 0.012-0.088 0.026-0.125 0.040l-0.007 0.003c-0.040 0.014-0.075 0.026-0.111 0.035-0.034 0.009-0.074 0.014-0.114 0.014-0.096 0-0.186-0.030-0.26-0.081l0.002 0.001-0.003-0.002c-0.097-0.066-0.166-0.169-0.187-0.287l-0-0.003c-0.002-0.018-0.004-0.040-0.004-0.061 0-0.044 0.006-0.087 0.017-0.128l-0.001 0.003 0.012-0.052c0.015-0.061 0.033-0.137 0.040-0.21v-0.001c0.021-0.221-0.056-0.411-0.125-0.567l-0.029-0.065c-0.061-0.136-0.111-0.246-0.127-0.369-0.012-0.106-0.075-0.195-0.164-0.243l-0.002-0.001c-0.047-0.024-0.102-0.038-0.16-0.038-0.033 0-0.064 0.004-0.095 0.013l0.003-0.001c-0.148 0.038-0.317 0.181-0.285 0.407v0.001c0.019 0.131 0.067 0.246 0.113 0.346 0.018 0.039 0.035 0.074 0.051 0.106 0.029 0.059 0.056 0.113 0.079 0.172l0.003 0.006c0.029 0.063 0.031 0.124 0.019 0.202-0.007 0.040-0.016 0.081-0.028 0.129l-0.001 0.006c-0.011 0.042-0.023 0.098-0.032 0.155l-0.002 0.011-0.001 0.007v0.006c-0.002 0.022-0.002 0.047-0.002 0.073 0 0.475 0.295 0.881 0.711 1.045l0.008 0.003c0.22 0.088 0.454 0.104 0.68 0.071 0.077-0.011 0.149-0.041 0.198-0.061l0.007-0.003c0.030-0.014 0.066-0.028 0.104-0.038l0.005-0.001c0.047 0.003 0.083 0.028 0.162 0.079l0.040 0.026c0.156 0.11 0.36 0.225 0.574 0.257 0.067 0.010 0.137 0.012 0.208 0.002 0.078 0.062 0.168 0.104 0.256 0.126 0.171 0.042 0.327 0.008 0.457-0.046 0.115-0.047 0.223-0.116 0.307-0.171l0.024-0.015c0.244-0.153 0.533-0.258 0.842-0.295l0.010-0.001c0.048-0.007 0.089-0.012 0.132-0.013 0.007-0.001 0.015-0.001 0.023-0.001 0.028 0 0.055 0.006 0.079 0.016l-0.001-0.001 0.008 0.005c0.017 0.008 0.038 0.026 0.065 0.074 0.014 0.023 0.026 0.049 0.041 0.080l0.008 0.018 0.040 0.081 0.003 0.007c0.264 0.461 0.643 0.843 1.105 1.113 0.087 0.054 0.208 0.123 0.341 0.164 0.061 0.022 0.132 0.035 0.205 0.035 0.093 0 0.182-0.020 0.261-0.057l-0.004 0.002c0.103-0.055 0.181-0.144 0.222-0.251l0.001-0.003 0.019 0.007 0.062 0.027 0.001 0.001c0.022 0.010 0.047 0.021 0.071 0.030l0.004 0.001c0.289 0.103 0.563 0.221 0.84 0.353 0.046 0.022 0.094 0.050 0.152 0.083l0.006 0.003c0.058 0.033 0.123 0.071 0.192 0.104 0.136 0.064 0.307 0.121 0.496 0.078l0.008-0.001 0.006-0.002c0.023 0.046 0.049 0.087 0.077 0.121l0.003 0.004c0.172 0.207 0.42 0.257 0.618 0.273h0.001l0.042 0.003c0.201 0.015 0.317 0.023 0.411 0.114 0.026 0.026 0.051 0.056 0.081 0.092l0.022 0.029c0.022 0.028 0.047 0.061 0.072 0.090 0.070 0.083 0.166 0.175 0.312 0.22 0.175 0.061 0.32 0.032 0.441-0.014 0.031-0.012 0.064-0.026 0.095-0.040-0.015 0.064-0.023 0.136-0.023 0.211 0 0.041 0.003 0.082 0.007 0.122l-0-0.005 0.001 0.007 0.017 0.104c0.043 0.263 0.067 0.41-0.074 0.585l-0.002 0.003c-0.070 0.085-0.163 0.149-0.27 0.18l-0.004 0.001-0.006 0.002c-0.035 0.013-0.063 0.021-0.093 0.029-0.024 0.007-0.050 0.014-0.085 0.026-0.081 0.024-0.151 0.060-0.213 0.107l0.002-0.001c-0.124 0.091-0.212 0.227-0.237 0.383l-0 0.003c-0.004 0.023-0.006 0.050-0.006 0.077 0 0.15 0.066 0.284 0.171 0.375l0.001 0.001 0.007 0.006c0.018 0.014 0.037 0.028 0.058 0.041l0.002 0.001c-0.053 0.040-0.098 0.085-0.136 0.136l-0.001 0.002c-0.171 0.225-0.191 0.489-0.16 0.721l-0.109 0.105 0.136 0.044 0.009 0.041 0.001 0.002c0.032 0.118 0.125 0.209 0.243 0.236l0.002 0c0.061 0.015 0.127 0.014 0.191-0.006 0.003 0.024 0.003 0.053 0.003 0.093v0.006c0 0.044 0 0.104 0.010 0.161l0.001 0.017c0.014 0.12 0.035 0.31 0.156 0.454 0.008 0.011 0.015 0.019 0.019 0.024l-0.001 0.001-0.008 0.007-0.007 0.008c-0.134 0.167-0.174 0.38-0.202 0.531l-0.006 0.026-0.001 0.008v0.008c-0.016 0.167-0.031 0.312-0.070 0.44-0.028 0.071-0.056 0.095-0.081 0.109-0.034 0.017-0.088 0.029-0.19 0.029l-0.23-0.001c-0.385-0.002-0.777-0.004-1.178 0.047l-0.016 0.002-0.015 0.005c-0.114 0.034-0.204 0.12-0.243 0.229l-0.001 0.003c-0.008 0.023-0.012 0.048-0.012 0.075 0 0.048 0.014 0.094 0.038 0.132l-0.001-0.001c0.042 0.061 0.108 0.103 0.185 0.111l0.001 0c0.321 0.046 0.625 0.061 0.942 0.061 0.060 0 0.125 0.003 0.198 0.007l0.024 0.002c0.064 0.003 0.132 0.008 0.202 0.010 0.153 0.003 0.327-0.003 0.488-0.058l0.005-0.001c0.312-0.117 0.441-0.352 0.502-0.589 0.030-0.114 0.045-0.232 0.058-0.338l0.001-0.012c0.013-0.102 0.024-0.192 0.042-0.273 0.013-0.032 0.029-0.059 0.049-0.084l-0.001 0.001c0.018-0.025 0.035-0.046 0.056-0.070l0.043-0.054c0.070-0.089 0.168-0.225 0.156-0.409l-0.001-0.005-0.001-0.006c-0.010-0.085-0.043-0.161-0.092-0.223l0.001 0.001c-0.038-0.044-0.080-0.082-0.127-0.115l-0.002-0.001c-0.015-0.011-0.026-0.026-0.032-0.044l-0-0.001c-0.007-0.026-0.011-0.056-0.011-0.086 0-0.006 0-0.013 0.001-0.019l-0 0.001v-0.022c0-0.207 0.001-0.546-0.289-0.749-0.050-0.038-0.109-0.070-0.172-0.091l-0.004-0.001 0.002-0.004v-0.002c0.006-0.017 0.014-0.032 0.025-0.046l-0 0c0.004-0.005 0.010-0.010 0.016-0.012l0-0c0.045-0.015 0.097-0.024 0.151-0.025h0zM42.336 14.691h-0.003l-0.010-0.174M42.336 14.691h0.002l-0.015-0.174M42.323 14.518c-0.171 0.015-0.28 0.031-0.342 0.195l0.755-0.295c-0.117 0.070-0.272 0.092-0.413 0.1zM42.205 13.803l0.001-0.001h-0.001z"></path>
<path  d="M31.633 6.878l0.004-0.006 0.003-0.006c0.074-0.143 0.121-0.306 0.077-0.494l-0.001-0.005c-0.026-0.094-0.069-0.175-0.126-0.245l0.001 0.001c-0.041-0.051-0.091-0.094-0.148-0.126l-0.003-0.001c-0.014-0.009-0.020-0.013-0.027-0.017l0.007 0.004c-0.001-0.013-0.003-0.029-0.003-0.046l-0-0.002c-0.012-0.128-0.068-0.241-0.153-0.326l-0-0c-0.158-0.151-0.371-0.186-0.543-0.168-0.104 0.011-0.199 0.034-0.289 0.067l0.008-0.003-0.071 0.024c-0.054 0.019-0.102 0.036-0.157 0.050-0.024 0.006-0.056 0.001-0.125-0.039l-0.059-0.037c-0.008-0.006-0.027-0.018-0.046-0.030l-0.012-0.007c-0.045-0.029-0.097-0.055-0.152-0.076l-0.006-0.002c-0.217-0.077-0.446-0.083-0.664-0.063 0.002-0.041 0.004-0.089 0.004-0.138 0-0.3-0.052-0.588-0.147-0.855l0.006 0.018c0.097-0.045 0.191-0.097 0.275-0.161 0.202-0.152 0.358-0.374 0.348-0.685l-0.001-0.008c-0.022-0.273-0.198-0.448-0.372-0.566h-0.001c-0.191-0.127-0.317-0.241-0.407-0.426l-0.001-0.002c-0.031-0.060-0.070-0.147-0.107-0.237l-0.011-0.030-0.008-0.021c-0.055-0.136-0.104-0.242-0.156-0.345l0.011 0.025c-0.111-0.213-0.264-0.428-0.518-0.563-0.134-0.074-0.293-0.117-0.462-0.117-0.070 0-0.138 0.007-0.203 0.021l0.006-0.001c-0.081 0.017-0.16 0.045-0.233 0.084-0.083-0.042-0.179-0.072-0.281-0.084l-0.004-0c-0.042-0.005-0.090-0.007-0.138-0.007-0.193 0-0.376 0.041-0.541 0.116l0.008-0.003c-0.084 0.037-0.148 0.068-0.211 0.102l0.016-0.008-0.003 0.001c-0.043 0.024-0.101 0.052-0.161 0.079l-0.017 0.007c-0.115 0.049-0.207 0.067-0.296 0.049l-0.004-0.001c-0.080-0.016-0.154-0.043-0.243-0.077 0.042 0.013 0.020 0.005-0.001-0.003l-0.064-0.020c-0.116-0.048-0.251-0.079-0.392-0.083l-0.002-0c-0.005-0-0.012-0-0.018-0-0.154 0-0.295 0.052-0.408 0.14l0.001-0.001c-0.106 0.083-0.178 0.193-0.234 0.291-0.026 0.045-0.047 0.085-0.067 0.122-0.033 0.064-0.062 0.114-0.094 0.163l0.005-0.009c-0.041 0.070-0.095 0.128-0.159 0.171l-0.002 0.001c-0.080 0.049-0.177 0.078-0.281 0.078-0.063 0-0.123-0.011-0.179-0.030l0.004 0.001c-0.075-0.031-0.124-0.054-0.173-0.078l0.023 0.010h-0.001c-0.029-0.015-0.082-0.039-0.136-0.063l-0.026-0.010c-0.116-0.052-0.25-0.086-0.39-0.097l-0.004-0h-0.010c-0.243 0-0.483 0.083-0.678 0.152l-0.067 0.024-0.082 0.031c-0.061 0.026-0.135 0.052-0.212 0.072l-0.012 0.003c-0.093 0.022-0.157 0.018-0.205-0.006-0.050-0.030-0.111-0.047-0.176-0.047-0.017 0-0.034 0.001-0.051 0.004l0.002-0c-0.076 0.013-0.143 0.044-0.199 0.090l0.001-0.001c-0.771 0.598-1.028 1.553-1.094 2.422-0.012-0.019-0.021-0.032-0.029-0.044l0.003 0.005-0.002-0.004c-0.296-0.419-0.813-0.688-1.363-0.435-0.057 0.024-0.105 0.048-0.15 0.075l0.006-0.003c-0.026 0.013-0.045 0.022-0.058 0.028-0.009-0.005-0.016-0.009-0.022-0.013l0.002 0.001-0.012-0.008c-0.030-0.021-0.085-0.059-0.148-0.081-0.23-0.095-0.44 0.016-0.572 0.143-0.011 0.011-0.021 0.022-0.030 0.034l-0.001 0.001c-0.010-0.038-0.019-0.067-0.029-0.095l0.003 0.009-0.003-0.007c-0.184-0.475-0.755-0.603-1.159-0.444-0.216 0.083-0.372 0.229-0.493 0.385-0.123-0.125-0.285-0.212-0.467-0.24l-0.005-0.001c-0.041-0.008-0.088-0.012-0.137-0.012-0.213 0-0.405 0.085-0.547 0.222l0-0c-0.065 0.062-0.106 0.149-0.106 0.246 0 0.009 0 0.018 0.001 0.027l-0-0.001c0.007 0.094 0.052 0.175 0.111 0.234 0.117 0.116 0.334 0.175 0.512 0.018l0.006-0.005c0.004-0.005 0.019-0.014 0.046-0.012 0.016 0 0.031 0.005 0.043 0.014l-0-0c0.018 0.024 0.024 0.052 0.040 0.125l0.006 0.029c0.019 0.086 0.054 0.221 0.191 0.313 0.261 0.177 0.545 0.033 0.684-0.14l0.007-0.007 0.004-0.009c0.038-0.059 0.076-0.128 0.109-0.199l0.004-0.011c0.018-0.036 0.033-0.068 0.051-0.101 0.037-0.078 0.091-0.144 0.158-0.192l0.001-0.001 0.006-0.003c0.040-0.027 0.089-0.043 0.142-0.044h0c0.052-0.001 0.086 0.013 0.106 0.032 0.021 0.029 0.035 0.074 0.049 0.158l0.006 0.029c0.012 0.075 0.030 0.182 0.078 0.274l0.003 0.006 0.003 0.006c0.059 0.101 0.145 0.18 0.249 0.229l0.003 0.001c0.058 0.025 0.125 0.040 0.196 0.040 0.039 0 0.076-0.004 0.112-0.013l-0.003 0.001c0.184-0.038 0.349-0.162 0.464-0.289 0.005-0.005 0.009-0.010 0.013-0.015l0-0.001c0.259 0.145 0.529 0.036 0.696-0.031l0.008-0.003h0.002c0.111-0.047 0.185-0.073 0.248-0.078 0.006-0 0.012-0.001 0.019-0.001 0.059 0 0.113 0.022 0.155 0.057l-0-0 0.005 0.003c0.165 0.114 0.26 0.318 0.32 0.546l0.001 0.005c0.015 0.054 0.026 0.118 0.040 0.2l0.001 0.008c0.013 0.081 0.029 0.175 0.056 0.266 0.055 0.184 0.166 0.39 0.431 0.457 0.139 0.036 0.27 0.021 0.378-0.052 0.089-0.066 0.156-0.157 0.19-0.262l0.001-0.004c0.066-0.184 0.069-0.409 0.069-0.526 0-0.49 0.004-1.023 0.114-1.512 0.097-0.433 0.275-0.818 0.595-1.102 0.227 0.046 0.436 0.001 0.625-0.060 0.072-0.024 0.15-0.053 0.225-0.081-0.007 0 0.038-0.016 0.082-0.033l0.052-0.017c0.115-0.040 0.223-0.072 0.332-0.085 0.094-0.010 0.186 0.025 0.319 0.088l0.040 0.020c0.115 0.056 0.264 0.129 0.429 0.146 0.309 0.035 0.612-0.053 0.858-0.205l0.004-0.003c0.263-0.174 0.369-0.399 0.472-0.615l0.040-0.083 0.001-0.003c0.022-0.047 0.040-0.052 0.045-0.054 0.014-0.004 0.043-0.007 0.102 0.009 0.057 0.015 0.119 0.040 0.195 0.071l0.002 0.001c0.071 0.029 0.157 0.064 0.239 0.083 0.394 0.090 0.727-0.077 1.002-0.223 0.103-0.045 0.227-0.097 0.339-0.114 0.008-0.001 0.019-0.002 0.030-0.003l0.002-0h0.057c0.046 0.005 0.065 0.024 0.076 0.045l0.003 0.006c0.068 0.114 0.192 0.166 0.3 0.169 0.005 0 0.012 0.001 0.018 0.001 0.128 0 0.24-0.071 0.297-0.177l0.001-0.002c0.008-0.017 0.019-0.031 0.034-0.042l0-0h0.061l-0.007-0.013c0.013 0 0.028 0.001 0.045 0.004 0.094 0.022 0.175 0.069 0.238 0.133l0 0c0.087 0.096 0.147 0.218 0.209 0.366l0.042 0.106c0.045 0.115 0.095 0.243 0.158 0.358 0.074 0.157 0.181 0.292 0.299 0.407l0.005 0.005 0.006 0.004c0.059 0.049 0.125 0.090 0.179 0.123l0.016 0.010c0.052 0.030 0.097 0.062 0.138 0.098l-0.001-0.001 0.008 0.008c0.009 0.007 0.011 0.013 0.012 0.014 0.001 0.002 0.001 0.005 0.001 0.008s-0 0.006-0.001 0.008l0-0c-0.008 0.035-0.026 0.064-0.051 0.087l-0 0c-0.054 0.048-0.12 0.084-0.193 0.104l-0.003 0.001-0.044-0.082-0.038 0.107c-0.010 0.004-0.058 0.017-0.106 0.030l-0.037 0.008c-0.112 0.027-0.201 0.108-0.239 0.213l-0.001 0.002c-0.013 0.036-0.021 0.078-0.021 0.122 0 0.061 0.015 0.118 0.041 0.168l-0.001-0.002c0.027 0.053 0.057 0.119 0.082 0.186l0.005 0.014-0.035 0.104 0.065-0.019c0.093 0.289 0.114 0.588 0.070 0.89l-0.121 0.026 0.1 0.097-0.008 0.040c-0.056 0.245 0.167 0.502 0.434 0.416 0.121-0.022 0.135-0.025 0.148-0.028l-0.108 0.020 0.099 0.096 0.033-0.124c0.215-0.044 0.402-0.068 0.578-0.014 0.039 0.017 0.077 0.040 0.127 0.070l0.003 0.002c0.049 0.029 0.108 0.064 0.174 0.091l0.008 0.003c0.161 0.058 0.316 0.056 0.454 0.040l0.010-0.001 0.010-0.002c0.073-0.018 0.141-0.044 0.197-0.065l0.004-0.002c0.045-0.019 0.1-0.037 0.157-0.052l0.009-0.002c0.022 0.152 0.101 0.283 0.214 0.372l0.001 0.001 0.005 0.004 0.005 0.003c0.027 0.019 0.059 0.037 0.082 0.051 0.022 0.013 0.038 0.022 0.053 0.032l-0.005-0.003c-0.090 0.169-0.043 0.348 0.089 0.44 0.049 0.035 0.11 0.056 0.176 0.056 0.017 0 0.033-0.001 0.049-0.004l-0.002 0c0.089-0.015 0.164-0.068 0.208-0.141l0.001-0.001zM20.446 5.661c0-0.892 0.013-1.997 0.692-2.673l-1.518 2.537c0.019 0.064 0.031 0.138 0.044 0.215 0.042 0.248 0.088 0.527 0.362 0.596 0.404 0.104 0.42-0.435 0.42-0.675zM21.53 2.892c0.198-0.003 0.387-0.074 0.579-0.146 0.167-0.063 0.335-0.127 0.516-0.148 0.163-0.017 0.308 0.054 0.454 0.125l-1.55 0.168zM20.041 6.036c0 0.001 0 0.001 0 0-0.002 0-0.002-0.001 0-0.003l0.001-0.001-0.001 0.003z"></path>
<path  d="M15.356 4.488c-0.017-0.182-0.17-0.272-0.289-0.298-0.037-0.090-0.097-0.163-0.172-0.217l-0.002-0.001c-0.083-0.061-0.187-0.098-0.3-0.098-0.033 0-0.065 0.003-0.096 0.009l0.003-0.001-0.008 0.001-0.008 0.002c-0.076 0.024-0.141 0.058-0.2 0.1l0.002-0.001c-0.038 0.024-0.055 0.036-0.073 0.048l0.019-0.012c-0.037 0.025-0.070 0.047-0.103 0.066l-0.006 0.003-0.051 0.014c-0.083-0.119-0.232-0.147-0.333-0.137-0.097 0.010-0.232 0.066-0.282 0.2-0.209-0.113-0.435-0.102-0.63-0.077h-0.002c-0.106 0.015-0.149 0.003-0.166-0.010v0c-0.024-0.021-0.044-0.046-0.060-0.073l-0.001-0.001-0.017-0.026c-0.021-0.032-0.049-0.074-0.077-0.11-0.182-0.242-0.434-0.322-0.645-0.389-0.097-0.026-0.113-0.031-0.128-0.036l0.082 0.022-0.004-0.002c-1.035-0.311-2.238-0.527-3.479-0.605l-0.047-0.002h-0.002c-0.378-0.022-0.82-0.035-1.265-0.035-0.173 0-0.346 0.002-0.518 0.006l0.026-0h-0.003c-0.431 0.015-0.919 0.093-1.315 0.341-0.233 0.146-0.415 0.355-0.525 0.603l-0.003 0.009-0.019 0.042c-0.019 0.046-0.033 0.075-0.046 0.104l0.007-0.016c-0.016 0.036-0.034 0.067-0.055 0.096l0.001-0.002c-0.006 0.009-0.013 0.017-0.021 0.024l-0 0h-0.002c-0.013-0.005-0.024-0.011-0.035-0.017l0.001 0.001c-0.015-0.009-0.023-0.014-0.032-0.019l0.006 0.003-0.003-0.001-0.029-0.017-0.006-0.003-0.006-0.003c-0.113-0.057-0.246-0.091-0.387-0.093h-0.008l-0.007 0.001c-0.253 0.021-0.459 0.182-0.561 0.378-0.132 0.254-0.145 0.545-0.113 0.814s0.109 0.534 0.181 0.748l0.001 0.003c0.169 0.467 0.412 0.869 0.718 1.213l-0.003-0.004c-0.034 0.073-0.054 0.159-0.054 0.249v0c0 0.182 0.074 0.332 0.135 0.447l0.022 0.041c0.056 0.104 0.095 0.179 0.111 0.264l0.001 0.007c0.024 0.102 0.006 0.186-0.038 0.235-0.016 0.020-0.039 0.034-0.065 0.037l-0 0c-0.021 0.003-0.045 0.005-0.069 0.005h-0.010c-0.035 0.001-0.067 0.003-0.099 0.006l0.006-0c-0.187 0.004-0.355 0.079-0.48 0.198l0-0c-0.079 0.070-0.157 0.162-0.223 0.241-0.029 0.034-0.052 0.062-0.076 0.089l0.004-0.004v0.001c-0.219 0.248-0.437 0.5-0.655 0.751h-0.001c-0.218 0.252-0.435 0.503-0.653 0.75l-0.001 0.002c-0.063 0.073-0.132 0.151-0.206 0.232-0.124 0.137-0.255 0.283-0.369 0.429-0.188 0.239-0.358 0.51-0.428 0.824-0.116 0.482-0.011 0.957 0.154 1.393-0.027 0-0.056 0.002-0.086 0.006l-0.007 0.001-0.008 0.002c-0.2 0.045-0.32 0.188-0.395 0.32-0.031 0.054-0.062 0.119-0.089 0.186l-0.004 0.011-0.026 0.066c-0.014 0.037-0.028 0.070-0.042 0.101-0.069 0.155-0.142 0.306-0.216 0.461v0.001c-0.074 0.153-0.148 0.307-0.219 0.466-0.038 0.077-0.068 0.133-0.1 0.189l0.009-0.017c-0.030 0.052-0.066 0.121-0.099 0.191l-0.008 0.020c-0.066 0.146-0.127 0.328-0.095 0.516 0.034 0.199 0.177 0.35 0.303 0.458 0.066 0.056 0.136 0.108 0.199 0.154 0.008 0.007 0.017 0.013 0.026 0.019 0.054 0.040 0.101 0.073 0.141 0.106l0.001 0.001c0.131 0.104 0.262 0.212 0.395 0.321v0.001c0.045 0.039 0.182 0.151 0.32 0.263l0.103 0.080c0.175 0.141 0.428 0.345 0.744 0.363 0.285 0.018 0.568-0.093 0.733-0.35l0.003-0.005 0.002-0.004c0.028-0.048 0.045-0.106 0.045-0.167 0-0.042-0.008-0.082-0.022-0.12l0.001 0.002c-0.032-0.080-0.088-0.145-0.16-0.187l-0.002-0.001c-0.053-0.032-0.117-0.051-0.186-0.051-0.021 0-0.041 0.002-0.061 0.005l0.002-0c-0.101 0.019-0.184 0.081-0.231 0.167l-0.001 0.002-0.003 0.005c-0.003 0.007-0.007 0.013-0.012 0.018l0-0c-0.002 0.002-0.003 0.002-0.003 0.002s-0.008 0.004-0.033 0.001c-0.056-0.007-0.138-0.045-0.242-0.114-0.109-0.075-0.204-0.15-0.294-0.23l0.003 0.003c-0.033-0.028-0.065-0.056-0.095-0.083-0.048-0.042-0.090-0.080-0.119-0.102l-0.296-0.24c-0.097-0.079-0.195-0.157-0.295-0.24h-0.002c-0.046-0.037-0.099-0.075-0.153-0.11l-0.007-0.005c-0.033-0.021-0.062-0.046-0.086-0.075l-0-0.001c-0.001-0.001-0.008-0.007 0.007-0.050 0.009-0.024 0.021-0.049 0.038-0.083l0.004-0.008c0.014-0.026 0.031-0.061 0.045-0.094 0.141-0.282 0.276-0.565 0.413-0.851l0.223-0.464c0.012-0.022 0.023-0.050 0.031-0.071l0.001-0.002v-0.001l0.016-0.038 0.022 0.013c0.006 0.004 0.015 0.008 0.023 0.013l0.002 0.001 0.007 0.003 0.006 0.002c0.065 0.026 0.132 0.047 0.204 0.056l0.124 0.258 0.045-0.257c0.075-0.011 0.143-0.033 0.206-0.064l-0.004 0.002c0.213-0.103 0.214-0.348 0.143-0.489-0.147-0.306-0.285-0.624-0.339-0.939-0.053-0.31-0.023-0.608 0.157-0.885 0.15-0.23 0.344-0.44 0.545-0.658l0.106-0.115 0.004-0.004c0.248-0.284 0.497-0.57 0.733-0.856 0.248-0.285 0.499-0.57 0.733-0.858l0.003-0.003c0.008-0.010 0.018-0.023 0.028-0.037l0.003-0.005 0.010-0.013c0.018-0.023 0.035-0.043 0.054-0.063l-0 0 0.017-0.007s0.013-0.003 0.058 0l0.042 0.004 0.029 0.003c0.026 0.002 0.057 0.005 0.088 0.005h0.010l0.010-0.001c0.155-0.018 0.294-0.075 0.414-0.171 0.292-0.226 0.381-0.562 0.346-0.89-0.023-0.194-0.085-0.369-0.179-0.523l0.003 0.006-0.016-0.028-0.002-0.003c-0.010-0.017-0.024-0.044-0.038-0.072l-0.005-0.012c0.080-0.049 0.139-0.127 0.164-0.218l0.001-0.003c0.009-0.030 0.015-0.065 0.015-0.101 0-0.098-0.039-0.186-0.103-0.25l0 0c-0.035-0.033-0.067-0.066-0.1-0.1l-0.001-0.001 0.029-0.097-0.098 0.022c-0.215-0.233-0.39-0.507-0.513-0.808l-0.006-0.018-0.001-0.003c-0.068-0.169-0.138-0.362-0.182-0.555-0.044-0.195-0.058-0.377-0.026-0.53l0.001-0.003c0.004-0.023 0.009-0.042 0.015-0.060l-0.001 0.003c0.011 0.004 0.021 0.008 0.029 0.013l-0.002-0.001c0.158 0.070 0.39 0.172 0.646 0.070 0.226-0.089 0.349-0.257 0.435-0.412 0.025-0.044 0.051-0.095 0.076-0.142l0.040-0.077c0.036-0.067 0.071-0.124 0.11-0.17l0.002-0.003c0.082-0.102 0.205-0.177 0.36-0.233 0.153-0.056 0.324-0.087 0.49-0.109 0.272-0.025 0.588-0.039 0.907-0.039 0.159 0 0.318 0.004 0.476 0.010l-0.022-0.001h0.001c1.032 0.029 2.064 0.163 3.082 0.386h0.001c0.281 0.061 0.556 0.12 0.814 0.193h0.001c0.022 0.007 0.058 0.016 0.095 0.024l0.012 0.002 0.074 0.017c0.056 0.014 0.092 0.027 0.113 0.041 0.043 0.028 0.065 0.060 0.108 0.125l0.046 0.068 0.004 0.006c0.142 0.188 0.337 0.348 0.621 0.369 0.032 0.003 0.070 0.005 0.108 0.005 0.054 0 0.107-0.004 0.159-0.012l-0.006 0.001c0.049-0.005 0.088-0.008 0.129-0.008h-0.002s0.007 0 0.021 0.003c0 0.101 0.044 0.191 0.114 0.253l0 0c0.065 0.059 0.152 0.094 0.248 0.094 0.049 0 0.095-0.009 0.138-0.026l-0.002 0.001 0.039 0.038 0.044-0.077c0.122-0.067 0.219-0.154 0.295-0.255 0.049 0.009 0.099 0.014 0.15 0.014 0.143 0 0.271-0.067 0.351-0.113 0.027-0.016 0.051-0.033 0.073-0.052l-0.001 0.001 0.006 0.010 0.010 0.013c0.067 0.085 0.156 0.151 0.257 0.189l0.004 0.001 0.007 0.003 0.007 0.002c0.122 0.035 0.25 0.021 0.353-0.049 0.104-0.069 0.168-0.182 0.18-0.312l0.001-0.016-0.001-0.017z"></path>
<path  d="M2.554 16.995c0-0.015-0.015-0.015-0.031-0.015 0.015 0.015 0.047 0.015 0.063 0.015h0.015c-0.031 0-0.063-0.015-0.078-0.015 0.015 0.015 0.031 0.030 0.047 0.030h0.093c0.015 0 0.015 0 0.031-0.015-0.016 0-0.016 0-0.031 0.015h0.015c0.016 0 0.016 0 0.031-0.015 0.016 0 0.016-0.015 0.031-0.030s0.031-0.045 0.015-0.061c0-0.015 0-0.030-0.015-0.045 0-0.015-0.015-0.015-0.031-0.031s-0.015-0.015-0.031-0.015h-0.047c-0.031 0-0.047 0-0.063 0.015 0 0-0.015 0-0.015 0.015-0.015 0-0.015 0.015-0.031 0.015-0.019 0.019-0.030 0.045-0.031 0.074v0c0.015-0.015 0.015-0.045 0.031-0.060l-0.031 0.030c-0.016 0.015-0.016 0.045-0.016 0.061v-0.045c-0.015 0.015-0.015 0.030-0.015 0.045s0 0.045 0.015 0.060h0.031c0.016-0.015 0.031-0.015 0.047-0.030z"></path>
<path  d="M2.554 17.169c0.048-0 0.092-0.018 0.125-0.047l-0 0 0.011-0.010-0.005 0.004c-0.026 0.023-0.061 0.037-0.099 0.037-0 0-0.001 0-0.001 0h0v-0.348c-0 0-0.001 0-0.001 0-0.053 0-0.101 0.022-0.136 0.056v0l0.005-0.004c0.017-0.014 0.037-0.025 0.059-0.031l0.001-0c0.012-0.003 0.026-0.005 0.040-0.006h0v0.348zM2.554 16.995l0.241 0.25 0.106-0.103v-0.147h-0.348zM2.524 16.979v-0.348h-0.863l0.621 0.598 0.241-0.25zM2.695 16.995l0.241 0.25 0.621-0.598h-0.863v0.348zM2.71 16.995v-0.348h-0.141l-0.101 0.097 0.241 0.25zM2.757 16.904h-0.348v0.148l0.106 0.102 0.241-0.25zM2.742 16.86h-0.348v0.147l0.106 0.103 0.241-0.25zM2.57 16.829v0.348h0.141l0.101-0.097-0.241-0.25zM2.554 16.845v0.348h0.348v-0.348h-0.348zM2.524 16.86v-0.348h-0.141l-0.101 0.097 0.241 0.25zM2.493 16.934h-0.348v0.819l0.589-0.568-0.241-0.25zM2.477 16.92h0.348v-0.819l-0.589 0.568 0.241 0.25zM2.477 17.025l-0.241 0.25 0.102 0.097h0.14v-0.348zM2.508 17.025v0.348h0.141l0.101-0.097-0.241-0.25zM2.902 16.995c0-0 0-0.001 0-0.001 0-0.194-0.153-0.352-0.344-0.361l-0.001-0-0.033-0.001v0.696h-0.011c-0.172-0.015-0.306-0.158-0.306-0.332v0h0.696zM2.282 17.23c0.058 0.055 0.132 0.093 0.215 0.106l0.002 0c0.042 0.007 0.081 0.006 0.086 0.006v-0.696c-0.010 0 0.005-0.001 0.024 0.002 0.061 0.012 0.114 0.040 0.155 0.080l-0-0-0.483 0.501zM2.586 17.343h0.016v-0.696h-0.016v0.696zM2.602 16.647c0.019 0 0.033 0.002 0.040 0.003l0.007 0.001-0.008-0.002-0.018-0.005c-0.029-0.008-0.063-0.013-0.098-0.013h-0v0.696c-0 0-0.001 0-0.001 0-0.018 0-0.035-0.002-0.053-0.004l0.002 0-0.019-0.003c-0.002-0.001-0.003-0.001 0 0l0.011 0.003c0.041 0.012 0.088 0.019 0.137 0.020l0.001 0v-0.696zM2.282 17.23c0.003 0.003 0.030 0.029 0.061 0.052 0.029 0.021 0.11 0.075 0.227 0.075v-0.696c0.102 0 0.167 0.047 0.181 0.057 0.015 0.011 0.026 0.022 0.014 0.010l-0.483 0.501zM2.57 17.357h0.031v-0.696h-0.032v0.696zM2.602 17.357h0.015v-0.696h-0.015v0.696zM2.617 17.357h0.031v-0.696h-0.032v0.696zM2.648 17.357h0.015v-0.696h-0.015v0.696zM2.664 17.357h0.012c0.057-0.001 0.11-0.014 0.157-0.037l-0.002 0.001c0.032-0.016 0.059-0.034 0.084-0.055l-0 0 0.022-0.021-0.483-0.501 0.004-0.003c0.049-0.043 0.111-0.071 0.18-0.078l0.001-0 0.024-0.001v0.696zM2.695 16.647h-0.012c-0.091 0.001-0.175 0.035-0.238 0.091l0-0-0.023 0.021 0.483 0.501-0.004 0.004c-0.049 0.042-0.112 0.070-0.18 0.076l-0.001 0c-0.018 0.002-0.035 0.002-0.024 0.002v-0.696zM2.664 17.357h0.015v-0.696h-0.015v0.696zM2.679 17.357h0.013c0.056-0.001 0.109-0.014 0.157-0.037l-0.002 0.001c0.032-0.016 0.059-0.034 0.084-0.055l-0 0 0.022-0.021-0.483-0.501 0.004-0.003c0.049-0.043 0.112-0.071 0.181-0.078l0.001-0 0.024-0.001v0.696zM2.71 17.343c0 0 0 0 0.001 0 0.125 0 0.235-0.063 0.301-0.159l0.001-0.001c0.030-0.043-0.003 0.008-0.029 0.033l-0.483-0.501c-0.024 0.023-0.045 0.049-0.063 0.077l-0.001 0.002 0.003-0.006c0.006-0.008 0.033-0.049 0.086-0.083s0.116-0.057 0.185-0.057h0v0.696zM2.983 17.215c0.047-0.045 0.084-0.101 0.106-0.164l0.001-0.003c0.014-0.037 0.022-0.081 0.022-0.126 0-0.105-0.043-0.201-0.113-0.269l-0-0-0.483 0.501c-0.062-0.059-0.1-0.141-0.1-0.233 0-0.036 0.006-0.071 0.017-0.103l-0.001 0.002c0.015-0.042 0.038-0.078 0.068-0.106l0-0 0.483 0.501zM3.105 16.904s0.002-0.052-0.013-0.11c-0.020-0.073-0.058-0.136-0.109-0.185l-0-0-0.483 0.501c-0.038-0.038-0.067-0.085-0.081-0.139l-0-0.002c-0.011-0.042-0.010-0.079-0.010-0.065h0.696zM3.089 16.86c0-0 0-0 0-0 0-0.080-0.026-0.154-0.070-0.214l0.001 0.001c-0.040-0.056-0.087-0.086-0.1-0.095-0.044-0.028 0.007 0.003 0.032 0.028l-0.483 0.501c0.025 0.024 0.049 0.040 0.065 0.051l0.015 0.009-0.005-0.003c-0.007-0.005-0.049-0.031-0.086-0.082-0.040-0.054-0.064-0.122-0.064-0.195v-0h0.696zM2.952 16.579l-0.022-0.021c-0.064-0.055-0.147-0.089-0.238-0.091h-0.014v0.696l-0.024-0.001c-0.070-0.007-0.133-0.035-0.183-0.078l0 0-0.004-0.004 0.483-0.501zM2.679 16.467h-0.047v0.696h0.047v-0.696zM2.632 16.467c-0.002 0-0.17-0.016-0.303 0.113l0.483 0.501c-0.040 0.039-0.091 0.066-0.148 0.078l-0.002 0c-0.019 0.003-0.033 0.004-0.036 0.004h0.007v-0.696zM2.57 16.829v-0.348h-0.011c-0.017 0.001-0.033 0.002-0.048 0.005l0.002-0c-0.1 0.017-0.185 0.073-0.241 0.151l-0.001 0.001c-0.040 0.058-0.065 0.129-0.065 0.207v0h0.696c-0.001 0.175-0.136 0.318-0.308 0.332l-0.001 0-0.012 0.001h-0.010l-0.001-0.348zM2.554 16.497c-0.097 0-0.186 0.038-0.251 0.1l0-0-0.006 0.005 0.003-0.002 0.010-0.010c0.056-0.048 0.13-0.078 0.21-0.078 0.001 0 0.002 0 0.003 0h-0v0.696c0.097-0 0.186-0.038 0.251-0.1l-0 0 0.006-0.005-0.002 0.002-0.011 0.010c-0.056 0.048-0.13 0.078-0.21 0.078-0.001 0-0.002 0-0.003 0h0v-0.696zM2.282 16.609c-0.084 0.083-0.137 0.198-0.138 0.325v0h0.696c0 0 0 0.001 0 0.001 0 0.069-0.029 0.131-0.075 0.175l-0 0-0.483-0.501zM2.734 17.185c0.042-0.041 0.076-0.091 0.096-0.147l0.001-0.003 0.006-0.017c0.001-0.003 0-0.002 0 0-0.017 0.042-0.041 0.077-0.072 0.106l-0 0-0.483-0.501c-0.047 0.045-0.082 0.101-0.102 0.164l-0.001 0.003c-0.001 0.003-0.001 0.002 0 0 0.017-0.042 0.041-0.077 0.072-0.106l0-0 0.483 0.501zM2.282 16.624l-0.015 0.015-0.015 0.015 0.483 0.501 0.015-0.015 0.016-0.015-0.483-0.501zM2.251 16.654c-0.059 0.058-0.1 0.134-0.114 0.219l-0 0.002c-0.008 0.045-0.007 0.083-0.007 0.090h0.696c0-0.010 0 0.007-0.003 0.029-0.013 0.064-0.044 0.119-0.088 0.161l-0 0-0.483-0.501zM2.824 16.965v-0.046h-0.696v0.046h0.696zM2.235 16.669c-0.051 0.049-0.089 0.112-0.108 0.183l-0.001 0.003c-0.015 0.057-0.013 0.109-0.013 0.11h0.696c0-0.014 0.002 0.022-0.009 0.065-0.015 0.055-0.043 0.103-0.081 0.14l-0 0-0.483-0.501zM2.113 16.965c0 0.006 0 0.045 0.007 0.089 0.007 0.038 0.028 0.137 0.115 0.221l0.483-0.501c0.044 0.042 0.075 0.098 0.087 0.159l0 0.002c0.003 0.022 0.003 0.039 0.003 0.029h-0.696zM2.477 17.373h0.032v-0.696h-0.032v0.696zM2.749 17.275c-0.036 0.035-0.075 0.051-0.067 0.048 0.007-0.003 0.062-0.028 0.113-0.078l-0.483-0.501c0.037-0.035 0.075-0.052 0.067-0.048s-0.062 0.028-0.114 0.078l0.483 0.501z"></path>
<path  d="M2.832 17.278l0.003 0.003 0.016 0.013c0.083 0.068 0.214 0.173 0.369 0.214 0.061 0.021 0.13 0.033 0.203 0.033 0.107 0 0.207-0.026 0.296-0.072l-0.004 0.002c0.038-0.016 0.064-0.028 0.090-0.040l-0.011 0.005c0.014-0.007 0.031-0.014 0.048-0.020l0.003-0.001c0.007-0.003 0.016-0.005 0.025-0.005s0.018 0.002 0.027 0.005l-0-0 0.009 0.003c0.077 0.023 0.138 0.053 0.21 0.088 0.032 0.016 0.066 0.033 0.104 0.050 0.117 0.053 0.255 0.103 0.426 0.095 0.050-0.001 0.097-0.013 0.124-0.019l0.005-0.001c0.015-0.005 0.033-0.008 0.052-0.010l0.001-0c0.017 0 0.026 0.003 0.045 0.013 0.014 0.008 0.024 0.014 0.035 0.020l-0.003-0.002 0.017 0.011c0.021 0.013 0.048 0.029 0.079 0.045l0.010 0.004c0.135 0.056 0.275 0.076 0.417 0.056 0.061-0.008 0.122-0.024 0.172-0.036l0.010-0.003c0.056-0.014 0.1-0.024 0.139-0.028 0.008-0.001 0.018-0.002 0.028-0.002 0.017 0 0.033 0.002 0.048 0.007l-0.001-0c0.012 0.003 0.028 0.012 0.047 0.039l0.001 0.001c0.040 0.053 0.071 0.104 0.106 0.164l0.044 0.073c0.054 0.087 0.119 0.184 0.217 0.269 0.245 0.216 0.58 0.23 0.844 0.122 0.153-0.051 0.288-0.144 0.387-0.213 0.007-0.005 0.026-0.018 0.045-0.031l0.014-0.009c0.093-0.061 0.236-0.155 0.298-0.334 0.011-0.029 0.017-0.062 0.017-0.097 0-0.075-0.029-0.143-0.076-0.194l0 0c-0.059-0.064-0.143-0.104-0.236-0.106h-0c-0.011-0.001-0.023-0.001-0.036-0.001-0.096 0-0.186 0.026-0.263 0.072l0.002-0.001c-0.074 0.041-0.141 0.096-0.196 0.141l-0.011 0.009c-0.129 0.104-0.2 0.15-0.284 0.142h-0.003c-0.032-0.002-0.065-0.019-0.111-0.085-0.022-0.032-0.044-0.070-0.064-0.11l-0.003-0.006-0.010-0.020c-0.019-0.037-0.042-0.080-0.065-0.118l-0.002-0.003c-0.122-0.186-0.301-0.367-0.589-0.407-0.028-0.003-0.060-0.005-0.093-0.005-0.044 0-0.087 0.003-0.129 0.010l0.005-0.001c-0.046 0.006-0.078 0.011-0.109 0.016l0.017-0.002-0.008 0.001-0.081 0.013-0.102 0.020c-0.017 0.004-0.037 0.006-0.057 0.007h-0.001c-0.017 0-0.040-0.003-0.087-0.033l-0.004-0.003c-0.064-0.041-0.138-0.075-0.216-0.097l-0.006-0.001c-0.052-0.013-0.112-0.021-0.174-0.021-0.030 0-0.059 0.002-0.088 0.005l0.003-0h-0.002c-0.042 0.004-0.077 0.009-0.106 0.013-0.083 0.011-0.123 0.017-0.19-0.003-0.058-0.026-0.103-0.048-0.147-0.073l0.009 0.005-0.015-0.007c-0.047-0.025-0.098-0.052-0.152-0.077-0.095-0.048-0.206-0.075-0.324-0.075-0.040 0-0.079 0.003-0.117 0.009l0.004-0.001c-0.080 0.015-0.152 0.044-0.216 0.083l0.003-0.002-0.010 0.006c-0.048 0.026-0.074 0.042-0.1 0.050-0.024 0.003-0.056-0.003-0.108-0.028-0.038-0.019-0.067-0.036-0.096-0.053l0.006 0.003-0.004-0.003c-0.031-0.018-0.067-0.039-0.104-0.056-0.108-0.058-0.235-0.096-0.369-0.107l-0.003-0c-0.009-0.001-0.020-0.001-0.031-0.001-0.162 0-0.304 0.088-0.38 0.219l-0.001 0.002-0.003 0.004-0.002 0.005c-0.017 0.031-0.027 0.067-0.027 0.106 0 0.123 0.1 0.223 0.223 0.223 0.002 0 0.004-0 0.005-0h-0c0.124 0 0.225 0.042 0.323 0.124z"></path>
<path  d="M7.578 17.93l0.013-0.003 0.011-0.004c0.257-0.102 0.474-0.171 0.748-0.199h0.001c0.099-0.012 0.231-0.023 0.364-0.030l0.018-0.001c0.129-0.010 0.264-0.021 0.406-0.045 0.461-0.077 0.99-0.253 1.232-0.739l0.003-0.007c0.014-0.030 0.025-0.060 0.035-0.086v-0.001l0.031-0.074c0.013-0.032 0.030-0.060 0.052-0.084l0.005-0.005 0.004-0.005h0.001c0.003-0.004 0.009-0.011 0.047-0.013 0.012-0.001 0.027-0.001 0.041-0.001s0.029 0 0.043 0.001l-0.002-0c0.029 0 0.067 0 0.108-0.003 0.137-0.002 0.275-0.040 0.395-0.118v0.001l0.005-0.003c0.067-0.050 0.124-0.108 0.17-0.175l0.002-0.002c0.021-0.033 0.047-0.061 0.078-0.083l0.001-0.001c0.036-0.018 0.077-0.030 0.121-0.035l0.002-0c0.024-0.004 0.057-0.007 0.090-0.010l0.006-0 0.090-0.009c0.167-0.017 0.317-0.049 0.478-0.095 0.065-0.016 0.125-0.033 0.184-0.049 0.231-0.064 0.424-0.117 0.641-0.096h0.005c0.303 0.020 0.575 0.14 0.85 0.301 0.118 0.070 0.232 0.144 0.35 0.221l0.061 0.040c0.138 0.090 0.28 0.181 0.428 0.259l0.007 0.003c0.143 0.069 0.289 0.016 0.366-0.086 0.036-0.047 0.058-0.107 0.058-0.172 0-0.079-0.032-0.15-0.084-0.201l-0-0c-0.408-0.44-0.996-0.819-1.608-0.963-0.171-0.048-0.366-0.076-0.569-0.076-0.121 0-0.24 0.010-0.355 0.029l0.013-0.002-0.002 0.001c-0.143 0.025-0.28 0.063-0.407 0.097-0.035 0.010-0.067 0.019-0.1 0.028-0.159 0.042-0.307 0.076-0.466 0.083h-0.002c-0.157 0.003-0.305 0.041-0.437 0.106l0.006-0.003c-0.125 0.064-0.227 0.157-0.328 0.269-0.038 0.041-0.060 0.047-0.081 0.051s-0.046 0.006-0.071 0.006h-0.018c-0.038 0.001-0.072 0.003-0.106 0.006l0.008-0.001c-0.004-0-0.009-0-0.013-0-0.156 0-0.3 0.053-0.414 0.142l0.001-0.001c-0.136 0.102-0.209 0.241-0.263 0.349l-0.017 0.035c-0.051 0.102-0.087 0.175-0.144 0.234l-0.005 0.006c-0.13 0.148-0.327 0.215-0.575 0.275-0.125 0.024-0.264 0.036-0.417 0.049l-0.031 0.003c-0.144 0.012-0.298 0.024-0.449 0.049-0.32 0.050-0.659 0.157-0.894 0.451-0.038 0.040-0.062 0.093-0.062 0.153 0 0.075 0.037 0.141 0.094 0.181l0.001 0c0.051 0.038 0.116 0.061 0.185 0.061 0.022 0 0.043-0.002 0.064-0.006l-0.002 0zM42.080 14.281l-0.007 0.021-0.001 0.022-0.047 0.602v0.013c0 0.036-0.003 0.078-0.007 0.129l-0.001 0.003c-0.005 0.045-0.008 0.098-0.008 0.152l-0 0.002c0 0.014-0.001 0.031-0.003 0.056v0.002c-0.002 0.025-0.004 0.054-0.004 0.083v0c0 0.064 0.010 0.158 0.079 0.241l0.006 0.007 0.007 0.007c0.049 0.047 0.108 0.060 0.152 0.060s0.104-0.014 0.152-0.060c0.059-0.061 0.096-0.144 0.099-0.234l0-0.001c0.003-0.043 0.002-0.097 0.001-0.132v-0.897c0.001-0.009 0.002-0.019 0.002-0.029 0-0.052-0.020-0.099-0.054-0.133l0 0c-0.037-0.039-0.090-0.063-0.148-0.063-0.001 0-0.002 0-0.002 0h0c-0 0-0 0-0.001 0-0.098 0-0.182 0.062-0.214 0.149l-0.001 0.002z"></path>
<path  d="M42.273 14.371c0.001-0.013-0-0.002-0.001 0.009l-0.002 0.023c-0.014 0.134-0.028 0.269-0.028 0.415 0 0.027-0.003 0.056-0.007 0.092l-0.001 0.008c-0.005 0.033-0.008 0.071-0.008 0.11l-0 0.001-0.001 0.035v0.013c-0.001 0.013-0.001 0.028-0.001 0.043 0 0.010 0 0.020 0.001 0.030l-0-0.001c0.003 0.055 0.016 0.128 0.070 0.197l0.007 0.010 0.010 0.008c0.045 0.044 0.106 0.071 0.173 0.072h0c0.062 0 0.139-0.027 0.186-0.1 0.037-0.052 0.060-0.116 0.062-0.186v-0.001c0.001-0.011 0.001-0.023 0.001-0.035s-0-0.025-0.001-0.037l0 0.002-0.001-0.013-0.001-0.036v-0.211c0-0.080-0.004-0.155-0.008-0.225v-0.002c-0.004-0.072-0.008-0.138-0.008-0.208 0-0.001 0-0.001 0-0.002 0-0.12-0.097-0.217-0.217-0.217-0.001 0-0.002 0-0.004 0h0c-0.002-0-0.003-0-0.005-0-0.116 0-0.211 0.091-0.215 0.206v0zM28.821 3.939c-0.016 0.193-0.032 0.393-0.032 0.595 0 0.037-0.003 0.079-0.007 0.129v0.003c-0.005 0.045-0.008 0.098-0.008 0.152l-0 0.002v0.15l-0.001 0.019v0.002c-0.002 0.013-0.003 0.029-0.003 0.045v0c0 0.035 0.006 0.093 0.045 0.147 0.033 0.055 0.093 0.092 0.161 0.092 0.001 0 0.002 0 0.003-0h-0c0.001 0 0.002 0 0.003 0 0.066 0 0.125-0.034 0.158-0.086l0-0.001c0.024-0.030 0.042-0.065 0.051-0.104l0-0.002c0.008-0.037 0.008-0.074 0.008-0.093v-0.154c0-0.037 0.003-0.079 0.007-0.129l0.001-0.003c0.003-0.045 0.008-0.097 0.008-0.146 0.015-0.2 0.015-0.399 0.015-0.605v-0.045l-0.019-0.038c-0.037-0.070-0.109-0.116-0.191-0.116v0c-0 0-0.001 0-0.001 0-0.048 0-0.092 0.017-0.127 0.045l0-0c-0.042 0.034-0.069 0.085-0.072 0.141l-0 0zM3.814 6.156v0.013c0.008 0.111 0.016 0.228 0.024 0.344l0.024 0.346v0.005l0.001 0.006c0.007 0.054 0.010 0.105 0.015 0.162v0.002c0.004 0.056 0.008 0.115 0.017 0.181v0.003c0.003 0.018 0.005 0.038 0.007 0.064v0.010c0.001 0.022 0.003 0.049 0.007 0.077 0.006 0.058 0.021 0.13 0.064 0.202 0.031 0.064 0.095 0.108 0.17 0.108 0.001 0 0.002 0 0.003-0h-0c0.028 0 0.067-0.007 0.104-0.031 0.035-0.022 0.070-0.063 0.081-0.118 0.038-0.138 0.017-0.271 0.003-0.367l-0.001-0.010c-0.005-0.042-0.010-0.098-0.014-0.153l-0-0.007-0.001-0.002c-0.003-0.054-0.008-0.113-0.016-0.176-0.008-0.113-0.019-0.227-0.031-0.337v-0.001c-0.012-0.113-0.023-0.223-0.031-0.332l-0.001-0.023-0.007-0.022c-0.031-0.088-0.113-0.151-0.21-0.151h-0c0 0 0 0 0 0-0.115 0-0.207 0.093-0.207 0.207 0 0 0 0 0 0.001v-0z"></path>
<path  d="M4.097 6.481l-0.019 0.038v0.046c0 0.191 0 0.375 0.016 0.574 0 0.184 0.016 0.389 0.065 0.582 0.010 0.057 0.046 0.098 0.081 0.121 0.030 0.019 0.066 0.031 0.105 0.031s0.075-0.011 0.105-0.031l-0.001 0c0.038-0.024 0.077-0.070 0.083-0.132 0.025-0.152 0.022-0.318 0.019-0.458-0.001-0.034-0.002-0.075-0.002-0.117v-0.016c-0.005-0.055-0.008-0.112-0.011-0.172-0.007-0.131-0.015-0.271-0.038-0.412l-0.004-0.028-0.013-0.025c-0.037-0.070-0.109-0.116-0.192-0.116-0 0-0.001 0-0.001 0h0c-0 0-0.001 0-0.001 0-0.083 0-0.155 0.047-0.192 0.115l-0.001 0.001z"></path>
<path  d="M30.887 9.602l-3.11 9.969h-1.21l-2.525-7.603c-0.023-0.074-0.047-0.153-0.070-0.237-0.019-0.083-0.040-0.171-0.063-0.264-0.060 0.244-0.108 0.412-0.16 0.577l0.021-0.076-2.539 7.603h-1.21l-3.11-9.969h1.12c0.12 0 0.221 0.031 0.299 0.090 0.078 0.054 0.135 0.134 0.159 0.227l0.001 0.003 2.059 6.929c0.033 0.125 0.063 0.26 0.090 0.403 0.033 0.144 0.063 0.297 0.090 0.459 0.033-0.162 0.065-0.315 0.097-0.459 0.037-0.148 0.077-0.282 0.118-0.403l2.344-6.929c0.034-0.087 0.089-0.16 0.159-0.215l0.001-0.001c0.078-0.065 0.179-0.104 0.289-0.104 0.004 0 0.007 0 0.011 0h0.389c0.12 0 0.218 0.031 0.292 0.090 0.073 0.060 0.13 0.137 0.166 0.226l0.001 0.004 2.337 6.929c0.042 0.121 0.079 0.25 0.111 0.39 0.037 0.139 0.072 0.285 0.104 0.438 0.023-0.153 0.049-0.299 0.077-0.438s0.058-0.269 0.090-0.39l2.066-6.929c0.028-0.091 0.081-0.167 0.152-0.222l0.001-0.001c0.079-0.061 0.179-0.098 0.288-0.098 0.004 0 0.008 0 0.012 0h1.050z"></path>
</symbol>
<symbol id="icon-menu" viewBox="0 0 32 32">
<path style="stroke: var(--color1, currentColor)" stroke-linejoin="round" stroke-linecap="round" stroke-miterlimit="4" stroke-width="1.6" d="M6.666 22.666h10.666M6.666 16h18.666M14.666 9.334h10.666"></path>
</symbol>
<symbol id="icon-instagram" viewBox="0 0 32 32">
<path d="M16 10c-3.314 0-6 2.686-6 6s2.686 6 6 6v0c3.314 0 6-2.686 6-6s-2.686-6-6-6v0zM16 20c-0.022 0-0.047 0.001-0.073 0.001-2.209 0-4-1.791-4-4s1.791-4 4-4c0.026 0 0.051 0 0.077 0.001l-0.004-0c2.178 0.041 3.927 1.816 3.927 3.999s-1.749 3.958-3.923 3.999l-0.004 0zM22 3h-12c-3.864 0.005-6.995 3.136-7 7v12c0.005 3.864 3.136 6.995 7 7h12c3.864-0.005 6.995-3.136 7-7v-12c-0.005-3.864-3.136-6.995-7-7h-0zM27 22c0 2.761-2.239 5-5 5v0h-12c-2.761 0-5-2.239-5-5v0-12c0-2.761 2.239-5 5-5v0h12c2.761 0 5 2.239 5 5v0 12zM24 9.5c0 0.828-0.672 1.5-1.5 1.5s-1.5-0.672-1.5-1.5v0c0-0.828 0.672-1.5 1.5-1.5s1.5 0.672 1.5 1.5v0z"></path>
</symbol>
<symbol id="icon-telegram" viewBox="0 0 32 32">
<path d="M29.609 3.273c-0.196-0.17-0.454-0.273-0.735-0.273-0.148 0-0.289 0.028-0.418 0.080l0.008-0.003-25.331 9.913c-0.669 0.265-1.134 0.907-1.134 1.657 0 0.861 0.613 1.58 1.426 1.743l0.011 0.002 6.564 1.289v7.319c0 0.002 0 0.004 0 0.007 0 0.832 0.511 1.545 1.236 1.842l0.013 0.005c0.222 0.093 0.481 0.148 0.752 0.148 0.565 0 1.075-0.235 1.437-0.613l0.001-0.001 3.164-3.281 5.021 4.395c0.349 0.31 0.811 0.5 1.317 0.5 0.222 0 0.436-0.037 0.636-0.104l-0.014 0.004c0.669-0.217 1.174-0.762 1.331-1.44l0.003-0.013 5.075-22.072c0.018-0.076 0.028-0.162 0.028-0.251 0-0.339-0.15-0.643-0.387-0.849l-0.001-0.001zM21.967 7.773l-11.199 8.020-6.2-1.216 17.4-6.804zM12 25v-5.935l3.099 2.717-3.099 3.217zM22.941 26l-10.336-9.063 14.876-10.661-4.54 19.724z"></path>
</symbol>
<symbol id="icon-facebook" viewBox="0 0 32 32">
<path d="M16 3c-7.18 0-13 5.82-13 13s5.82 13 13 13c7.18 0 13-5.82 13-13v0c-0.008-7.177-5.823-12.992-12.999-13h-0.001zM17 26.953v-7.953h3c0.552 0 1-0.448 1-1s-0.448-1-1-1v0h-3v-3c0-1.105 0.895-2 2-2v0h2c0.552 0 1-0.448 1-1s-0.448-1-1-1v0h-2c-2.209 0-4 1.791-4 4v0 3h-3c-0.552 0-1 0.448-1 1s0.448 1 1 1v0h3v7.953c-5.629-0.529-10-5.231-10-10.954 0-6.075 4.925-11 11-11s11 4.925 11 11c0 5.723-4.371 10.425-9.956 10.951l-0.044 0.003z"></path>
</symbol>
<symbol id="icon-arrow-left" viewBox="0 0 195 32">
<path  d="M1.253 14.587c-0.361 0.362-0.585 0.861-0.585 1.413s0.224 1.052 0.585 1.413l12.727 12.729c0.362 0.362 0.862 0.586 1.415 0.586 1.105 0 2.001-0.896 2.001-2.001 0-0.552-0.224-1.053-0.586-1.415l-11.316-11.313 11.315-11.313c0.362-0.362 0.586-0.862 0.586-1.415 0-1.105-0.896-2.001-2.001-2.001-0.552 0-1.053 0.224-1.415 0.586l-12.725 12.729zM194.667 14h-192v4h192v-4z"></path>
</symbol>
<symbol id="icon-arrow-right" viewBox="0 0 195 32">
<path  d="M193.415 17.413c0.361-0.362 0.584-0.862 0.584-1.413s-0.223-1.051-0.584-1.413l-12.728-12.729c-0.362-0.362-0.862-0.586-1.415-0.586-1.105 0-2.001 0.896-2.001 2.001 0 0.552 0.224 1.053 0.586 1.415l11.315 11.313-11.315 11.313c-0.34 0.358-0.549 0.843-0.549 1.377 0 1.105 0.896 2.001 2.001 2.001 0.534 0 1.019-0.209 1.378-0.55l-0.001 0.001 12.728-12.728zM0 18h192v-4h-192v4z"></path>
</symbol>
<symbol id="icon-star" viewBox="0 0 35 32">
<path fill="#ae990b" style="fill: var(--color3, #ae990b)" d="M17.455 0l4.617 11.1 11.984 0.96-9.13 7.823 2.788 11.695-10.259-6.268-10.259 6.266 2.788-11.695-9.13-7.818 11.984-0.96 4.617-11.103z"></path>
</symbol>
<symbol id="icon-bus" viewBox="0 0 32 32">
<path  d="M9.384 26.667c-0.005 0-0.010 0-0.015 0-0.18 0-0.342-0.073-0.459-0.192l-0-0c-0.119-0.117-0.192-0.28-0.192-0.459 0-0.005 0-0.011 0-0.016v0.001-2.528c-0.433-0.188-0.884-0.588-1.351-1.201-0.437-0.566-0.7-1.285-0.7-2.066 0-0.018 0-0.036 0-0.054l-0 0.003v-12.153c0-1.383 0.748-2.396 2.245-3.037 1.497-0.643 3.861-0.963 7.088-0.963 3.344 0 5.736 0.308 7.176 0.925 1.437 0.616 2.157 1.641 2.157 3.075v12.153c0 0.8-0.233 1.504-0.7 2.117s-0.917 1.013-1.352 1.2v2.529c0 0.189-0.063 0.347-0.191 0.475-0.117 0.119-0.28 0.192-0.459 0.192-0.006 0-0.012-0-0.017-0l0.001 0h-0.307c-0.005 0-0.011 0-0.017 0-0.18 0-0.342-0.074-0.459-0.192l-0-0c-0.118-0.117-0.191-0.279-0.191-0.458 0-0.006 0-0.012 0-0.017l-0 0.001v-2h-11.283v2c0 0.189-0.064 0.347-0.192 0.475-0.117 0.119-0.28 0.192-0.459 0.192-0.005 0-0.010-0-0.015-0h-0.306zM8 14.667h16v-5.949h-16v5.949zM11.34 20.82c0.413 0 0.765-0.144 1.051-0.435 0.287-0.291 0.429-0.643 0.429-1.057 0-0.416-0.144-0.767-0.435-1.053-0.263-0.265-0.627-0.428-1.029-0.428-0.010 0-0.021 0-0.031 0l0.002-0c-0.413 0-0.765 0.144-1.051 0.435-0.265 0.263-0.43 0.627-0.43 1.030 0 0.010 0 0.019 0 0.029l-0-0.001c0 0.416 0.145 0.767 0.435 1.053 0.291 0.285 0.643 0.428 1.059 0.428zM20.673 20.82c0.413 0 0.764-0.144 1.051-0.435s0.429-0.643 0.429-1.057c0-0.416-0.144-0.767-0.435-1.053-0.263-0.265-0.627-0.428-1.029-0.428-0.010 0-0.021 0-0.031 0l0.002-0c-0.413 0-0.764 0.144-1.051 0.435-0.265 0.263-0.43 0.628-0.43 1.030 0 0.009 0 0.019 0 0.028l-0-0.001c0 0.416 0.144 0.767 0.435 1.053 0.291 0.285 0.643 0.428 1.057 0.428zM8.139 7.384h15.753c-0.231-0.685-0.943-1.199-2.137-1.539-1.193-0.341-3.107-0.512-5.739-0.512-2.617 0-4.523 0.173-5.717 0.52-1.193 0.345-1.915 0.856-2.16 1.531zM10.667 22.667h10.667c0.733 0 1.36-0.261 1.884-0.783 0.521-0.523 0.783-1.151 0.783-1.884v-4h-16v4c0 0.733 0.261 1.36 0.784 1.884 0.521 0.521 1.149 0.783 1.883 0.783z"></path>
</symbol>
<symbol id="icon-card" viewBox="0 0 32 32">
<path d="M28 5.251h-24c-1.518 0.002-2.748 1.231-2.751 2.749v16c0.002 1.519 1.232 2.749 2.751 2.751h24c1.519-0.002 2.749-1.232 2.751-2.751v-16c-0.002-1.519-1.232-2.749-2.751-2.751h-0zM4 6.749h24c0.689 0.001 1.249 0.56 1.251 1.251v1.251h-26.5v-1.251c0-0.691 0.56-1.249 1.249-1.251zM28 25.249h-24c-0.69-0.001-1.249-0.559-1.251-1.249v-13.251h26.5v13.251c0 0.689-0.56 1.249-1.249 1.251zM9.645 17.628c1.455 0 2.635-1.18 2.635-2.635s-1.18-2.635-2.635-2.635v0c-1.455 0-2.635 1.18-2.635 2.635s1.18 2.635 2.635 2.635v0zM9.645 13.857c0.627 0 1.135 0.508 1.135 1.135s-0.508 1.135-1.135 1.135v0c-0.627 0-1.135-0.508-1.135-1.135s0.508-1.135 1.135-1.135v0zM9.645 18.811c-2.139 0.009-3.929 1.494-4.404 3.489l-0.006 0.031-0.005 0.031c-0.007 0.039-0.011 0.083-0.011 0.129 0 0.415 0.336 0.751 0.751 0.751 0.345 0 0.635-0.232 0.723-0.549l0.001-0.005v-0.004c0.309-1.366 1.513-2.371 2.952-2.371 1.431 0 2.63 0.995 2.943 2.331l0.004 0.020 0.004 0.020c0.089 0.323 0.38 0.556 0.725 0.556 0.415 0 0.751-0.336 0.751-0.751 0-0.047-0.004-0.093-0.012-0.137l0.001 0.005v0.005c-0.471-2.039-2.265-3.538-4.412-3.552h-0.002l-0.001 0.001zM26 13.251h-8c-0.395 0.024-0.706 0.351-0.706 0.749s0.311 0.725 0.704 0.749l0.002 0h8c0.395-0.024 0.706-0.351 0.706-0.749s-0.311-0.725-0.704-0.749l-0.002-0zM26 17.251h-8c-0.395 0.024-0.706 0.351-0.706 0.749s0.311 0.725 0.704 0.749l0.002 0h8c0.395-0.024 0.706-0.351 0.706-0.749s-0.311-0.725-0.704-0.749l-0.002-0zM26 21.251h-8c-0.395 0.024-0.706 0.351-0.706 0.749s0.311 0.725 0.704 0.749l0.002 0h8c0.401-0.017 0.719-0.347 0.719-0.75s-0.318-0.733-0.717-0.75l-0.002-0z"></path>
</symbol>
<symbol id="icon-face" viewBox="0 0 32 32">
<path  d="M12 21.667c-0.467 0-0.861-0.16-1.183-0.484-0.299-0.292-0.484-0.7-0.484-1.151 0-0.011 0-0.022 0-0.034l-0 0.002c0-0.467 0.161-0.861 0.484-1.183 0.321-0.323 0.716-0.484 1.183-0.484s0.861 0.16 1.184 0.484c0.321 0.321 0.483 0.716 0.483 1.183s-0.16 0.861-0.483 1.183c-0.292 0.299-0.7 0.484-1.151 0.484-0.012 0-0.023-0-0.035-0l0.002 0zM20 21.667c-0.467 0-0.861-0.16-1.183-0.484-0.299-0.292-0.484-0.7-0.484-1.151 0-0.011 0-0.022 0-0.034l-0 0.002c0-0.467 0.161-0.861 0.484-1.183 0.321-0.323 0.716-0.484 1.183-0.484s0.861 0.16 1.184 0.484c0.321 0.321 0.483 0.716 0.483 1.183s-0.16 0.861-0.483 1.183c-0.292 0.299-0.7 0.484-1.151 0.484-0.012 0-0.023-0-0.035-0l0.002 0zM16 29.333c2.979 0 5.5-1.033 7.567-3.1s3.1-4.589 3.1-7.567c0-0.533-0.033-1.049-0.1-1.549-0.073-0.542-0.201-1.031-0.382-1.495l0.015 0.044c-0.467 0.111-0.933 0.195-1.4 0.251-0.429 0.053-0.926 0.083-1.43 0.083-0.013 0-0.026-0-0.039-0h0.002c-0.016 0-0.036 0-0.055 0-2.065 0-4.019-0.48-5.755-1.334l0.077 0.034c-1.829-0.888-3.364-2.114-4.581-3.609l-0.019-0.024c-0.727 1.766-1.76 3.269-3.046 4.512l-0.004 0.004c-1.28 1.24-2.819 2.221-4.527 2.855l-0.090 0.029v0.2c0 2.977 1.033 5.5 3.1 7.567s4.589 3.1 7.567 3.1zM12.944 8.423c1.087 2.171 2.623 3.755 4.608 4.751 1.984 0.996 3.912 1.493 5.781 1.493 0.413 0 0.821-0.021 1.221-0.063s0.797-0.111 1.195-0.207c-0.848-1.983-2.161-3.545-3.941-4.685-1.625-1.073-3.619-1.712-5.762-1.712-0.016 0-0.032 0-0.048 0h0.002c-0.584 0-1.12 0.033-1.605 0.101-0.485 0.067-0.968 0.175-1.451 0.321zM5.516 16.941c1.373-0.611 2.763-1.611 4.172-3 1.408-1.391 2.229-3.137 2.464-5.241-1.787 0.677-3.282 1.778-4.413 3.185l-0.015 0.020c-1.125 1.391-1.909 3.103-2.2 4.977l-0.008 0.059zM4.567 15.28c0.5-1.825 1.384-3.403 2.565-4.707l-0.009 0.010c1.185-1.319 2.664-2.349 4.337-2.99l0.077-0.026c-0.485-0.603-1.079-1.095-1.756-1.452l-0.030-0.015c-0.667-0.354-1.458-0.562-2.297-0.562-0.021 0-0.042 0-0.062 0l0.003-0c-1.48 0-2.733 0.512-3.756 1.536-1.023 1.025-1.533 2.28-1.533 3.764 0 0.933 0.224 1.787 0.676 2.56 0.448 0.767 1.049 1.398 1.766 1.867l0.021 0.013zM16.005 30.667c-0.022 0-0.048 0-0.074 0-1.665 0-3.248-0.348-4.681-0.975l0.075 0.029c-1.481-0.638-2.746-1.503-3.814-2.566l0 0c-1.062-1.066-1.927-2.33-2.535-3.731l-0.030-0.078c-0.599-1.358-0.947-2.942-0.947-4.607 0-0.026 0-0.051 0-0.077l-0 0.004c0-0.351 0.015-0.697 0.044-1.043 0.029-0.344 0.080-0.677 0.156-0.999-1.041-0.565-1.887-1.373-2.48-2.351l-0.016-0.029c-0.586-0.952-0.934-2.105-0.934-3.339 0-0.024 0-0.047 0-0.071l-0 0.004c0-1.844 0.643-3.411 1.933-4.7 1.288-1.289 2.853-1.933 4.699-1.933 1.127 0 2.163 0.261 3.109 0.787 0.947 0.523 1.72 1.225 2.32 2.107 0.433-0.129 0.96-0.242 1.5-0.317l0.060-0.007c0.532-0.072 1.067-0.108 1.608-0.108 1.66 0 3.22 0.315 4.68 0.944 1.48 0.638 2.744 1.503 3.811 2.566l-0-0c1.062 1.066 1.927 2.329 2.535 3.73l0.030 0.078c0.597 1.356 0.944 2.938 0.944 4.6 0 0.028-0 0.055-0 0.083l0-0.004c0 0.023 0 0.050 0 0.077 0 1.664-0.347 3.246-0.974 4.679l0.029-0.075c-0.638 1.48-1.502 2.745-2.564 3.813l0-0.001c-1.066 1.063-2.33 1.928-3.731 2.536l-0.078 0.030c-1.357 0.598-2.939 0.946-4.602 0.946-0.027 0-0.053-0-0.080-0l0.004 0z"></path>
</symbol>
<symbol id="icon-ticket" viewBox="0 0 32 32">
<path  d="M30 13.751c0.413 0 0.751-0.337 0.751-0.751v-5c0-0.415-0.336-0.751-0.751-0.751v0h-28c-0.415 0-0.751 0.336-0.751 0.751v0 5c0 0.413 0.336 0.751 0.751 0.751 1.242 0 2.249 1.007 2.249 2.249s-1.007 2.249-2.249 2.249v0c-0.415 0-0.751 0.336-0.751 0.751v0 5c0 0.413 0.336 0.751 0.751 0.751h28c0.413 0 0.751-0.336 0.751-0.751v-5c0-0.415-0.336-0.751-0.751-0.751v0c-1.242 0-2.249-1.007-2.249-2.249s1.007-2.249 2.249-2.249v0zM29.249 19.673v3.576h-26.499v-3.576c1.722-0.364 2.997-1.869 3-3.673v-0c-0-1.796-1.263-3.297-2.949-3.665l-0.025-0.005-0.025-0.004v-3.576h26.5v3.576c-1.723 0.363-2.998 1.869-3.001 3.673v0c0 1.805 1.276 3.313 2.976 3.669l0.023 0.004z"></path>
</symbol>
<symbol id="icon-close" viewBox="0 0 32 32">
<path fill="currentColor" stroke="currentColor" style="stroke: currentColor" stroke-linejoin="round" stroke-linecap="round" stroke-miterlimit="4" stroke-width="1.6" d="M24 24l-16-16M24 8l-16 16"></path>
</symbol>
</defs>
</svg>
